<svg width="100" height="100" viewBox="0 0 100 100" fill="none" xmlns="http://www.w3.org/2000/svg">
<path fill-rule="evenodd" clip-rule="evenodd" d="M31.3145 50.852C31.2335 50.852 32.2025 52.9025 32.2295 52.9025C34.3445 56.6765 38.4215 59.0225 45.299 59.6735C44.318 60.4055 43.139 61.7945 42.9755 63.3995C41.741 64.184 39.2585 64.4435 37.3295 63.845C34.625 63.0065 33.59 57.746 29.5415 58.496C28.6655 58.6565 28.8395 59.225 29.597 59.7095C30.8315 60.494 31.9925 61.4765 32.888 63.566C33.5765 65.171 35.0225 68.0375 39.5975 68.0375C41.4125 68.0375 42.6845 67.823 42.6845 67.823C42.6845 67.823 42.719 71.9195 42.719 73.5125C42.719 75.35 40.196 75.8675 40.196 76.751C40.196 77.1005 41.0315 77.1335 41.702 77.1335C43.028 77.1335 45.7865 76.046 45.7865 74.1365C45.7865 72.62 45.812 67.5215 45.812 66.6275C45.812 64.6775 46.8755 64.0595 46.8755 64.0595C46.8755 64.0595 47.0075 74.4695 46.622 75.8675C46.169 77.5085 45.3515 77.276 45.3515 78.008C45.3515 79.097 48.6725 78.2765 49.7735 75.884C50.624 74.0255 50.252 63.809 50.252 63.809L51.1595 63.791C51.1595 63.791 51.2105 68.4665 51.179 70.604C51.1475 72.818 50.996 75.617 52.334 76.937C53.213 77.8055 56.06 79.328 56.06 77.936C56.06 77.1275 54.5 76.463 54.5 74.2745V64.202C55.7465 64.202 55.559 67.514 55.559 67.514L55.6505 73.6685C55.6505 73.6685 55.3745 75.9095 58.118 76.847C59.0855 77.1815 61.1555 77.2715 61.253 76.712C61.3505 76.1525 58.76 75.32 58.736 73.586C58.721 72.5255 58.784 71.9075 58.784 67.3055C58.784 62.7035 58.1555 61.0025 55.964 59.6465C62.726 58.964 66.9125 57.32 68.951 52.9175C69.11 52.922 69.7835 50.861 69.695 50.861C70.1525 49.199 70.4 47.2325 70.448 44.9045C70.436 38.5895 67.361 36.356 66.7715 35.3075C67.6415 30.527 66.6245 28.352 66.1535 27.605C64.4105 26.996 60.092 29.1725 57.731 30.7055C53.885 29.6 45.752 29.7065 42.7025 30.9905C37.076 27.032 34.0985 27.638 34.0985 27.638C34.0985 27.638 32.174 31.0265 33.59 35.9855C31.739 38.3045 30.359 39.9455 30.359 44.294C30.359 46.745 30.653 48.938 31.3145 50.852ZM50 95C25.148 95 5 74.852 5 50C5 25.1465 25.148 5 50 5C74.852 5 95 25.1465 95 50C95 74.852 74.852 95 50 95Z" fill="white"/>
</svg>
