<svg width="100" height="100" viewBox="0 0 100 100" fill="none" xmlns="http://www.w3.org/2000/svg">
<path d="M49.9853 5C25.1466 5 5 25.1466 5 49.985C5 74.8534 25.1466 95 49.9853 95C74.8534 95 95 74.8534 95 49.985C95 25.1466 74.8534 5 49.9853 5ZM37.2287 72.5367C37.2287 73.0642 37.0821 73.2109 36.5543 73.2109H28.1378C27.61 73.2109 27.434 73.0642 27.4633 72.5367V42.7713C27.434 42.2431 27.6393 42.0672 28.1378 42.0965H36.5543C37.1114 42.0672 37.2287 42.2431 37.2287 42.7713V72.5367ZM32.3607 38.0792C29.2522 38.1085 26.7009 35.5279 26.7009 32.4194C26.7009 29.4868 28.9883 26.7889 32.3314 26.7595C35.4985 26.7595 38.0205 29.1349 38.0205 32.4194C38.0205 35.6449 35.5572 38.0496 32.3607 38.0792ZM72.4194 73.2109H64.1789C63.5044 73.2109 63.4751 73.1818 63.4751 72.4777V57.434C63.4751 55.9968 63.4457 54.5894 63.0352 53.2111C62.39 51.0704 60.9824 50.044 58.7537 49.9853C57.1701 49.9557 55.6745 50.2493 54.5308 51.4809C53.651 52.4487 53.2405 53.651 53.0938 54.9117C52.9768 56.0557 52.8886 57.2287 52.8886 58.4015C52.8592 63.1232 52.8592 67.8446 52.8886 72.566C52.8886 73.0642 52.7419 73.2109 52.2437 73.2109H43.7683C43.2698 73.2109 43.0938 73.0642 43.0938 72.566C43.1232 62.6246 43.1232 52.683 43.0938 42.7419C43.0938 42.2141 43.2698 42.0968 43.7683 42.0968H51.8625C52.39 42.0968 52.5367 42.2727 52.5367 42.7713C52.5073 43.8563 52.5367 44.9707 52.5367 46.0557C54.0619 43.827 56.1144 42.3607 58.695 41.7449C61.6862 41.0117 64.6481 41.217 67.4633 42.4487C70.1909 43.6217 71.6572 45.8504 72.4194 48.607C72.9475 50.3959 73.1818 52.2434 73.2111 54.1202C73.2405 60.1906 73.2698 66.2903 73.2994 72.3607C73.2991 73.2109 73.2991 73.2109 72.4194 73.2109Z" fill="white"/>
</svg>
