<svg width="24" height="24" xmlns="http://www.w3.org/2000/svg">

 <g>
  <title>background</title>
  <rect fill="none" id="canvas_background" height="402" width="582" y="-1" x="-1"/>
 </g>
 <g>
  <title>Layer 1</title>
  <path fill="#ffffff" id="svg_1" d="m0.3,8.5l11,11c0.4,0.4 1,0.4 1.4,0l11,-11c0.4,-0.4 0.4,-1 0,-1.4l-2.7,-2.7c-0.4,-0.4 -1,-0.4 -1.4,0l-7.6,7.6l-7.6,-7.6c-0.4,-0.4 -1,-0.4 -1.4,0l-2.7,2.7c-0.4,0.4 -0.4,1 0,1.4zm3.4,-2.1l8.3,8.3l8.3,-8.3l1.4,1.4l-9.7,9.7l-9.6,-9.7l1.3,-1.4z"/>
 </g>
</svg>