<svg width="80" height="70" viewBox="0 0 80 70" fill="none" xmlns="http://www.w3.org/2000/svg">
<path d="M14 7.14575C10.692 7.14575 8 9.50125 8 12.3958C8 15.2903 10.692 17.6458 14 17.6458C17.308 17.6458 20 15.2903 20 12.3958C20 9.50125 17.308 7.14575 14 7.14575ZM14 15.3124C12.1627 15.3124 10.6667 14.0046 10.6667 12.3958C10.6667 10.7869 12.1627 9.47909 14 9.47909C15.8373 9.47909 17.3333 10.7869 17.3333 12.3958C17.3333 14.0046 15.8373 15.3124 14 15.3124Z" fill="#0378A6"/>
<path d="M66.6668 11.8123C67.4032 11.8123 68.0002 11.29 68.0002 10.6457C68.0002 10.0013 67.4032 9.479 66.6668 9.479C65.9304 9.479 65.3335 10.0013 65.3335 10.6457C65.3335 11.29 65.9304 11.8123 66.6668 11.8123Z" fill="#0378A6"/>
<path d="M61.3333 11.8123C62.0697 11.8123 62.6667 11.29 62.6667 10.6457C62.6667 10.0013 62.0697 9.479 61.3333 9.479C60.597 9.479 60 10.0013 60 10.6457C60 11.29 60.597 11.8123 61.3333 11.8123Z" fill="#0378A6"/>
<path d="M69.3333 15.3123C70.0697 15.3123 70.6667 14.79 70.6667 14.1457C70.6667 13.5013 70.0697 12.979 69.3333 12.979C68.597 12.979 68 13.5013 68 14.1457C68 14.79 68.597 15.3123 69.3333 15.3123Z" fill="#0378A6"/>
<path d="M63.9998 15.3123C64.7362 15.3123 65.3332 14.79 65.3332 14.1457C65.3332 13.5013 64.7362 12.979 63.9998 12.979C63.2635 12.979 62.6665 13.5013 62.6665 14.1457C62.6665 14.79 63.2635 15.3123 63.9998 15.3123Z" fill="#0378A6"/>
<path d="M55.9998 11.8123C56.7362 11.8123 57.3332 11.29 57.3332 10.6457C57.3332 10.0013 56.7362 9.479 55.9998 9.479C55.2635 9.479 54.6665 10.0013 54.6665 10.6457C54.6665 11.29 55.2635 11.8123 55.9998 11.8123Z" fill="#0378A6"/>
<path d="M58.6668 15.3123C59.4032 15.3123 60.0002 14.79 60.0002 14.1457C60.0002 13.5013 59.4032 12.979 58.6668 12.979C57.9305 12.979 57.3335 13.5013 57.3335 14.1457C57.3335 14.79 57.9305 15.3123 58.6668 15.3123Z" fill="#0378A6"/>
<path d="M50.6668 11.8123C51.4032 11.8123 52.0002 11.29 52.0002 10.6457C52.0002 10.0013 51.4032 9.479 50.6668 9.479C49.9304 9.479 49.3335 10.0013 49.3335 10.6457C49.3335 11.29 49.9304 11.8123 50.6668 11.8123Z" fill="#0378A6"/>
<path d="M53.3333 15.3123C54.0697 15.3123 54.6667 14.79 54.6667 14.1457C54.6667 13.5013 54.0697 12.979 53.3333 12.979C52.597 12.979 52 13.5013 52 14.1457C52 14.79 52.597 15.3123 53.3333 15.3123Z" fill="#0378A6"/>
<path d="M45.3333 11.8123C46.0697 11.8123 46.6667 11.29 46.6667 10.6457C46.6667 10.0013 46.0697 9.479 45.3333 9.479C44.597 9.479 44 10.0013 44 10.6457C44 11.29 44.597 11.8123 45.3333 11.8123Z" fill="#0378A6"/>
<path d="M47.9998 15.3123C48.7362 15.3123 49.3332 14.79 49.3332 14.1457C49.3332 13.5013 48.7362 12.979 47.9998 12.979C47.2635 12.979 46.6665 13.5013 46.6665 14.1457C46.6665 14.79 47.2635 15.3123 47.9998 15.3123Z" fill="#0378A6"/>
<path d="M14 29.3125C10.692 29.3125 8 31.668 8 34.5625C8 37.457 10.692 39.8125 14 39.8125C17.308 39.8125 20 37.457 20 34.5625C20 31.668 17.308 29.3125 14 29.3125ZM14 37.4792C12.1627 37.4792 10.6667 36.1713 10.6667 34.5625C10.6667 32.9537 12.1627 31.6458 14 31.6458C15.8373 31.6458 17.3333 32.9537 17.3333 34.5625C17.3333 36.1713 15.8373 37.4792 14 37.4792Z" fill="#0378A6"/>
<path d="M14 51.479C10.692 51.479 8 53.8345 8 56.729C8 59.6235 10.692 61.979 14 61.979C17.308 61.979 20 59.6235 20 56.729C20 53.8345 17.308 51.479 14 51.479ZM14 59.6457C12.1627 59.6457 10.6667 58.3378 10.6667 56.729C10.6667 55.1202 12.1627 53.8123 14 53.8123C15.8373 53.8123 17.3333 55.1202 17.3333 56.729C17.3333 58.3378 15.8373 59.6457 14 59.6457Z" fill="#0378A6"/>
<path d="M80 19.2697V5.52175C80 2.55725 77.244 0.145752 73.856 0.145752H6.144C2.756 0.145752 0 2.55725 0 5.52175V19.2686C0 20.9824 0.937333 22.4932 2.36933 23.4779C0.937333 24.4637 0 25.9757 0 27.6884V41.4352C0 43.1491 0.937333 44.6599 2.36933 45.6446C0.937333 46.6304 0 48.1424 0 49.8551V63.6019C0 66.5664 2.756 68.9779 6.144 68.9779H43.3107C46.8867 69.5542 50.8067 69.8529 54.6667 69.8529C66.2293 69.8529 78.4213 67.2291 79.86 62.2077C79.9493 62.0526 80 61.8752 80 61.6874V51.1874V50.7499V50.3124V40.6874V40.2499V39.8124V29.7499V29.3124C80 29.1374 79.9507 28.9752 79.872 28.8271C79.4093 27.1191 77.6747 25.6806 75.1227 24.5279C77.904 24.0157 80 21.8539 80 19.2697ZM2.66667 41.4364V27.6884C2.66667 26.0107 4.22667 24.6457 6.144 24.6457H33.9573C31.5453 25.7786 29.908 27.1762 29.4613 28.8271C29.3827 28.9764 29.3333 29.1374 29.3333 29.3124V29.7499V39.8124V40.2499V40.6874V44.4791H6.144C4.22667 44.4791 2.66667 43.1141 2.66667 41.4364ZM32.8347 34.2766C32.8947 34.3104 32.9587 34.3442 33.02 34.3781C33.2547 34.5064 33.4987 34.6324 33.7533 34.7561C33.8267 34.7911 33.8973 34.8272 33.9707 34.8611C34.2813 35.0069 34.604 35.1493 34.94 35.2857C34.9933 35.3079 35.0507 35.3289 35.104 35.3499C35.3987 35.4677 35.7013 35.5809 36.0133 35.6917C36.1053 35.7244 36.196 35.7571 36.288 35.7886C36.656 35.9146 37.0307 36.0382 37.4187 36.1549C37.44 36.1607 37.4613 36.1666 37.4827 36.1736C37.8533 36.2844 38.2347 36.3906 38.6227 36.4932C38.7267 36.5212 38.832 36.5481 38.9373 36.5749C39.3213 36.6729 39.7107 36.7686 40.1093 36.8596C40.1413 36.8666 40.172 36.8747 40.204 36.8817C40.6333 36.9786 41.072 37.0684 41.5173 37.1559C41.6293 37.1781 41.7427 37.1991 41.8547 37.2201C42.236 37.2924 42.6213 37.3612 43.0107 37.4266C43.088 37.4394 43.1653 37.4534 43.2427 37.4662C43.7 37.5409 44.1627 37.6097 44.6307 37.6751C44.7413 37.6902 44.8547 37.7054 44.9653 37.7206C45.3533 37.7731 45.744 37.8221 46.1387 37.8676C46.2467 37.8804 46.3533 37.8932 46.4627 37.9049C46.94 37.9574 47.42 38.0064 47.904 38.0507C48.0013 38.0601 48.1 38.0671 48.1973 38.0752C48.604 38.1102 49.0133 38.1417 49.4227 38.1709C49.5467 38.1791 49.6693 38.1884 49.7933 38.1966C50.2827 38.2281 50.7747 38.2561 51.2667 38.2782C51.336 38.2817 51.4067 38.2829 51.4773 38.2864C51.9107 38.3051 52.3453 38.3191 52.78 38.3296C52.9107 38.3331 53.0413 38.3366 53.1733 38.3389C53.6707 38.3482 54.168 38.3552 54.664 38.3552C55.16 38.3552 55.6573 38.3482 56.1547 38.3389C56.2853 38.3366 56.416 38.3331 56.548 38.3296C56.9827 38.3191 57.416 38.3051 57.8507 38.2864C57.9213 38.2829 57.9907 38.2817 58.0613 38.2782C58.5533 38.2561 59.0453 38.2281 59.5347 38.1966C59.6587 38.1884 59.7813 38.1802 59.9053 38.1709C60.316 38.1429 60.724 38.1102 61.1307 38.0752C61.228 38.0671 61.3267 38.0589 61.424 38.0507C61.908 38.0064 62.388 37.9586 62.8653 37.9049C62.9733 37.8932 63.0813 37.8804 63.1893 37.8676C63.5827 37.8221 63.9747 37.7731 64.3627 37.7206C64.4747 37.7054 64.5867 37.6914 64.6973 37.6751C65.1653 37.6097 65.628 37.5409 66.0853 37.4662C66.164 37.4534 66.24 37.4394 66.3173 37.4266C66.708 37.3612 67.0933 37.2924 67.4733 37.2201C67.5867 37.1979 67.6987 37.1769 67.8107 37.1559C68.2547 37.0684 68.6947 36.9786 69.124 36.8817C69.156 36.8747 69.1867 36.8666 69.2187 36.8596C69.6173 36.7697 70.0067 36.6741 70.3907 36.5749C70.496 36.5481 70.6013 36.5212 70.7053 36.4932C71.0933 36.3906 71.4747 36.2844 71.8453 36.1736C71.8667 36.1677 71.888 36.1619 71.9093 36.1549C72.2973 36.0371 72.6733 35.9146 73.04 35.7886C73.1333 35.7571 73.224 35.7244 73.3147 35.6917C73.6267 35.5809 73.9293 35.4677 74.224 35.3499C74.2787 35.3277 74.3347 35.3079 74.388 35.2857C74.724 35.1493 75.0453 35.0069 75.3573 34.8611C75.432 34.8261 75.5027 34.7911 75.5747 34.7561C75.828 34.6336 76.072 34.5076 76.308 34.3781C76.3693 34.3442 76.4333 34.3116 76.4933 34.2766C76.7693 34.1202 77.0307 33.9592 77.2787 33.7936C77.2947 33.7831 77.3133 33.7737 77.3293 33.7632V39.5826C77.2973 39.7179 77.276 39.8556 77.3013 39.9944C77.32 40.0796 77.3333 40.1636 77.3333 40.2499C77.3333 40.3782 77.292 40.5089 77.256 40.6384C77.228 40.7387 77.192 40.8402 77.144 40.9406C77.1013 41.0281 77.048 41.1167 76.9893 41.2042C76.932 41.2917 76.8693 41.3804 76.7973 41.4679C76.6947 41.5892 76.5787 41.7106 76.4467 41.8319C76.3973 41.8786 76.348 41.9252 76.2947 41.9719C73.472 44.3612 65.1427 46.5196 54.668 46.5196C44.2 46.5196 35.8747 44.3636 33.0467 41.9754C32.988 41.9241 32.9347 41.8739 32.8813 41.8226C32.756 41.7059 32.6427 41.5892 32.544 41.4726C32.468 41.3804 32.4013 41.2882 32.3413 41.1949C32.2867 41.1121 32.236 41.0292 32.1947 40.9452C32.1427 40.8391 32.1067 40.7341 32.0773 40.6291C32.0413 40.5031 32 40.3759 32 40.2499C32 40.1671 32.012 40.0842 32.028 40.0026C32.056 39.8509 32.0387 39.6992 32 39.5534V33.7621C32.016 33.7726 32.0347 33.7819 32.0507 33.7924C32.2973 33.9581 32.5587 34.1191 32.8347 34.2766ZM77.1427 51.4406C77.1 51.5281 77.0467 51.6167 76.988 51.7042C76.9307 51.7917 76.868 51.8804 76.796 51.9679C76.6933 52.0892 76.5773 52.2106 76.4453 52.3319C76.396 52.3786 76.3467 52.4252 76.2933 52.4719C73.4707 54.8612 65.1413 57.0196 54.6667 57.0196C44.1987 57.0196 35.8733 54.8636 33.0453 52.4754C32.9867 52.4241 32.9333 52.3739 32.88 52.3226C32.7547 52.2059 32.6413 52.0892 32.5427 51.9726C32.4667 51.8804 32.4 51.7882 32.34 51.6949C32.2853 51.6121 32.2347 51.5292 32.1933 51.4452C32.1413 51.3391 32.1053 51.2341 32.076 51.1291C32.0453 51.0194 32.0133 50.9086 32.0093 50.7989V50.6589C32.0147 50.6064 32.0173 50.5539 32.0267 50.5014C32.0453 50.4011 32.02 50.3031 32.008 50.2039L32 44.4791V44.2621C32.0533 44.2982 32.116 44.3321 32.172 44.3671C32.34 44.4767 32.516 44.5841 32.696 44.6902C32.8427 44.7754 32.9947 44.8594 33.1493 44.9434C33.388 45.0717 33.628 45.1989 33.884 45.3214C33.8867 45.3226 33.8893 45.3237 33.8907 45.3249C36.672 46.6514 40.496 47.6092 44.724 48.1891C44.756 48.1937 44.788 48.1972 44.82 48.2019C46.184 48.3874 47.584 48.5321 49.008 48.6382C49.3107 48.6604 49.612 48.6837 49.9173 48.7024C50.2147 48.7211 50.512 48.7374 50.8107 48.7514C51.2133 48.7712 51.616 48.7887 52.0187 48.8027C52.2533 48.8109 52.488 48.8202 52.724 48.8261C53.3733 48.8424 54.0213 48.8541 54.668 48.8541C55.3133 48.8541 55.9613 48.8436 56.608 48.8272C56.8453 48.8214 57.0813 48.8121 57.3187 48.8039C57.7187 48.7899 58.1173 48.7736 58.516 48.7537C58.8173 48.7386 59.1173 48.7222 59.4173 48.7036C59.7173 48.6849 60.0133 48.6627 60.312 48.6406C61.7493 48.5344 63.1627 48.3874 64.5387 48.2007C64.5587 48.1984 64.58 48.1949 64.6 48.1926C69.22 47.5602 73.352 46.4741 76.1747 44.9504C76.328 44.8676 76.48 44.7847 76.6253 44.6996C76.8053 44.5946 76.9813 44.4872 77.148 44.3776C77.208 44.3391 77.276 44.3029 77.3347 44.2632V50.0826C77.3027 50.2179 77.2813 50.3556 77.3067 50.4944C77.32 50.5796 77.3333 50.6636 77.3333 50.7499C77.3333 50.8782 77.292 51.0089 77.256 51.1384C77.2267 51.2387 77.192 51.3402 77.1427 51.4406ZM6.144 66.6457C4.22667 66.6457 2.66667 65.2807 2.66667 63.6031V49.8551C2.66667 48.1774 4.22667 46.8124 6.144 46.8124H29.3333V50.3124V50.7499V51.1874V61.6874V62.8541H29.728C29.7493 62.8972 29.78 62.9392 29.804 62.9824C29.8507 63.0699 29.9027 63.1551 29.956 63.2414C30.0653 63.4141 30.1893 63.5844 30.3267 63.7524C30.4627 63.9216 30.616 64.0849 30.7787 64.2471C30.8613 64.3287 30.944 64.4092 31.0333 64.4897C31.544 64.9506 32.1573 65.3822 32.8653 65.7859C32.8893 65.7999 32.9147 65.8139 32.94 65.8279C33.452 66.1161 34.0053 66.3891 34.604 66.6469H6.144V66.6457ZM77.3333 61.3887C77.3227 61.4249 77.3133 61.4622 77.3067 61.4984C76.7613 64.4069 67.5333 67.5207 54.6667 67.5207C50.5613 67.5207 46.8333 67.2022 43.632 66.6761L43.6333 66.6667C37.0027 65.5689 33.3333 63.7151 32.3067 62.1517C32.3053 62.1506 32.304 62.1494 32.304 62.1471C32.2573 62.0747 32.224 62.0036 32.188 61.9336C32.1187 61.7877 32.0533 61.6431 32.0267 61.4984L32.016 54.7726C32.064 54.8052 32.1213 54.8356 32.1707 54.8682C32.3387 54.9779 32.5147 55.0852 32.6947 55.1914C32.8413 55.2766 32.9933 55.3606 33.148 55.4446C33.3867 55.5729 33.6267 55.7001 33.8827 55.8226C33.8853 55.8237 33.888 55.8249 33.8893 55.8261C36.6707 57.1526 40.4947 58.1104 44.7227 58.6902C44.7547 58.6949 44.7867 58.6984 44.8187 58.7031C46.1827 58.8886 47.5827 59.0332 49.0067 59.1394C49.3093 59.1616 49.6107 59.1849 49.916 59.2036C50.2133 59.2222 50.5107 59.2386 50.8093 59.2526C51.212 59.2724 51.6147 59.2899 52.0173 59.3039C52.252 59.3121 52.4867 59.3214 52.7227 59.3272C53.372 59.3436 54.02 59.3552 54.6667 59.3552C55.312 59.3552 55.96 59.3447 56.6067 59.3284C56.844 59.3226 57.08 59.3132 57.3173 59.3051C57.7173 59.2911 58.116 59.2747 58.5147 59.2549C58.816 59.2397 59.116 59.2234 59.416 59.2047C59.716 59.1861 60.012 59.1639 60.3107 59.1417C61.748 59.0356 63.1613 58.8886 64.5373 58.7019C64.5573 58.6996 64.5787 58.6961 64.5987 58.6937C69.2187 58.0614 73.3507 56.9752 76.1733 55.4516C76.3267 55.3687 76.4787 55.2859 76.624 55.2007C76.804 55.0957 76.98 54.9884 77.1467 54.8787C77.2067 54.8402 77.2747 54.8041 77.3333 54.7644V61.3887ZM77.3333 29.7499C77.3333 32.7097 67.6387 36.0207 54.6667 36.0207C41.6933 36.0207 32 32.7097 32 29.7499C32 29.6006 32.0413 29.4489 32.0907 29.2972C32.144 29.1467 32.216 28.9927 32.3227 28.8341C32.3267 28.8271 32.3307 28.8201 32.3347 28.8131C32.7787 28.1644 33.6733 27.4667 35.0507 26.7936C35.1093 26.7656 35.1693 26.7376 35.2293 26.7096C35.4653 26.5976 35.7147 26.4867 35.9773 26.3771C36.2827 26.2522 36.596 26.1274 36.932 26.0072C36.9973 25.9827 37.0653 25.9594 37.1333 25.9361C38.6827 25.3959 40.5493 24.9164 42.6507 24.5244C43.308 24.4031 43.9773 24.2887 44.6653 24.1884C44.848 24.1616 45.0267 24.1336 45.212 24.1079C51.1813 23.3029 58.1453 23.3029 64.1147 24.1079C64.3027 24.1336 64.484 24.1627 64.6693 24.1896C65.3533 24.2887 66.0187 24.4019 66.6707 24.5232C73.1707 25.7342 77.3333 27.8144 77.3333 29.7499ZM77.3333 19.2697C77.3333 20.9474 75.7733 22.3124 73.856 22.3124H67.6827C67.6053 22.2972 67.52 22.2879 67.4427 22.2727C66.568 22.1071 65.668 21.9589 64.748 21.8306C64.6587 21.8189 64.5693 21.8061 64.48 21.7944C61.332 21.3662 57.972 21.1457 54.6667 21.1457C51.3613 21.1457 48.004 21.3662 44.856 21.7944C44.764 21.8061 44.6733 21.8189 44.5813 21.8306C43.664 21.9589 42.7667 22.1071 41.8947 22.2716C41.816 22.2867 41.728 22.2961 41.6493 22.3112H6.144C4.22667 22.3124 2.66667 20.9474 2.66667 19.2697V5.52175C2.66667 3.84408 4.22667 2.47908 6.144 2.47908H73.8547C75.7733 2.47908 77.3333 3.84408 77.3333 5.52175V19.2697Z" fill="#0378A6"/>
</svg>
