<?xml version="1.0" encoding="UTF-8"?>
<!DOCTYPE svg PUBLIC "-//W3C//DTD SVG 1.1//EN" "http://www.w3.org/Graphics/SVG/1.1/DTD/svg11.dtd">
<!-- Creator: CorelDRAW X7 -->
<svg xmlns="http://www.w3.org/2000/svg" xml:space="preserve" width="123.417mm" height="123.559mm" version="1.1" style="shape-rendering:geometricPrecision; text-rendering:geometricPrecision; image-rendering:optimizeQuality; fill-rule:evenodd; clip-rule:evenodd"
viewBox="0 0 12342 12356"
 xmlns:xlink="http://www.w3.org/1999/xlink">
 <defs>
  <style type="text/css">
   <![CDATA[
    .str1 {stroke:#284268;stroke-width:7.62}
    .str0 {stroke:#5D6977;stroke-width:7.62}
    .str3 {stroke:#A6B7D0;stroke-width:7.62}
    .str2 {stroke:#EB6337;stroke-width:7.62}
    .fil7 {fill:#274168}
    .fil10 {fill:#274268}
    .fil0 {fill:#284268}
    .fil3 {fill:#465572}
    .fil6 {fill:#50A6EA}
    .fil2 {fill:#5D6977}
    .fil11 {fill:#989658}
    .fil8 {fill:#A5B6CE}
    .fil4 {fill:#A6B7D0}
    .fil1 {fill:#E4F4FC}
    .fil5 {fill:#EB6337}
    .fil9 {fill:#F9DE4A}
   ]]>
  </style>
 </defs>
 <g id="Camada_x0020_1">
  <metadata id="CorelCorpID_0Corel-Layer"/>
  <g id="_2890254309776">
   <path class="fil0" d="M4563 12012l-90 36c-7,-97 -16,-64 23,-137 0,-188 32,-424 137,-521 310,-287 788,159 483,483 -111,117 -358,150 -553,139zm1902 -442c-66,-32 -158,-125 -197,-199 127,-93 208,-246 349,-319l183 170 -335 348zm-1565 -807c63,-73 202,-229 297,-278l756 766c-39,89 -202,239 -273,291l-780 -779zm493 -494c272,-302 440,-578 909,-128 83,80 266,328 234,520 -13,76 -297,337 -364,391l-779 -783zm-3358 109c15,-172 36,-493 119,-604 270,-361 906,129 480,480 -122,101 -418,113 -599,124zm1107 -528l0 0zm1497 -108c125,-93 209,-251 358,-325l395 408c-67,142 -225,227 -318,351 -84,-45 -389,-350 -435,-434zm-2089 -484l0 0zm2654 -83c103,-72 261,-251 362,-352 125,-125 232,-232 357,-357 98,-98 597,-636 725,-696 -80,1034 460,1257 654,1617 145,270 218,566 139,918 -64,287 -266,603 -433,705l-175 -174c22,-1297 -1186,-1213 -1230,-1235 -11,-6 -358,-325 -399,-426zm-4879 -1294c17,-180 22,-479 122,-603 107,-133 378,-169 514,-29 142,146 113,390 -35,508 -128,102 -420,110 -601,124zm2176 -948c94,66 374,337 420,429l-346 336 -425 -418 351 -347zm-1430 -543c188,101 558,580 777,748l-284 285c-105,-91 -716,-689 -765,-782l272 -251zm217 -245c76,-55 131,-121 200,-192 66,-66 101,-147 221,-145 411,5 770,537 702,753 -16,52 -294,307 -354,370 -91,-70 -725,-697 -769,-786zm-173 -598c75,52 108,107 181,158 -40,85 -279,313 -348,366l-181 -174 348 -350zm223 -208c265,-437 1072,-634 1645,-284 560,342 447,655 1601,641l-1083 1086c-109,109 -248,266 -359,353 -72,-52 -422,-381 -429,-456 -34,-328 -4,-434 -193,-694 -128,-178 -267,-307 -510,-402 -506,-199 -345,107 -672,-244zm7565 -1414c-62,445 -711,1573 -930,1882 -238,335 -504,692 -784,992l-3333 3310c-99,-62 -1093,-1058 -1135,-1140 -140,-72 -360,-349 -492,-467 51,-127 614,-646 752,-784 257,-257 496,-496 752,-752 1300,-1300 2422,-2624 4176,-3343 176,-72 976,-413 1124,-331 114,98 -109,609 -130,633zm-5357 1193c-166,-79 -193,-229 -602,-414 75,-93 247,-205 360,-287 1356,-998 2710,-2110 4189,-2835 593,-290 1151,-491 1800,-718 75,219 99,400 184,610 225,576 785,1136 1319,1362 368,156 546,159 673,211 -42,362 -551,1483 -716,1820 -632,1287 -1203,1961 -2011,3065 -186,253 -354,476 -544,737l-546 724c-8,-11 -16,-23 -33,-50 -279,-454 -240,-309 -455,-606 -367,-507 -279,-1295 157,-1659l528 -606c328,-413 610,-847 889,-1378 178,-341 564,-1221 628,-1640 42,-279 -170,-569 -595,-448 -817,233 -1657,613 -2329,1073 -120,83 -213,146 -332,235 -120,89 -203,155 -320,247 -222,174 -404,357 -602,533 -512,453 -1337,381 -1642,24zm6045 -4351c153,-28 530,-169 659,-146 81,436 275,760 499,980 248,244 526,396 992,498l-167 654c-999,-113 -1883,-976 -1983,-1986zm2450 -63c-52,231 -164,944 -248,1095 -307,-21 -545,-168 -729,-314 -113,-90 -405,-383 -417,-593 -75,-68 -97,-240 -108,-356 294,-58 580,-124 876,-186 349,-74 647,-66 626,354zm-9491 8554c-134,-11 -661,-291 -1222,133 -378,286 -503,597 -503,1075 104,70 27,74 197,74 -24,91 -253,400 -222,813 12,159 36,153 99,247l517 0c88,-101 68,-49 74,-222 -113,-98 -58,-68 -369,-74 0,-713 458,-693 387,-951 -38,-138 -201,-109 -363,-109 8,-346 389,-764 863,-764 -143,213 -181,141 -237,528 -125,868 -84,710 633,633 396,-43 353,-123 540,-249 0,570 -417,558 -271,863 226,52 233,-4 342,-151 224,-299 298,-686 197,-1053 -21,-73 -53,-128 -70,-201 199,133 416,453 611,598 217,161 382,-257 670,-450l401 388c-120,175 -403,289 -259,479 58,78 102,64 130,168 -453,38 -481,630 -514,892 -55,451 -54,467 404,404 142,-20 299,-32 411,-57 225,-51 467,-236 487,-475 103,69 162,197 315,69 95,-80 153,-175 252,-241 142,95 228,315 444,320 136,-92 434,-422 573,-561 459,-459 752,-747 698,-1549 -7,-102 85,-192 197,-341 89,-117 155,-206 243,-324 88,-116 155,-214 240,-327 1375,-1833 2508,-3238 3277,-5547 23,-68 45,-160 68,-228 49,-145 85,-287 130,-437l412 -1856c49,-329 -92,-612 -376,-726 -282,-113 -573,-7 -941,75 -1030,229 -1633,348 -2655,746 -563,220 -1042,460 -1546,722 -119,62 -237,135 -359,208 -127,77 -232,136 -351,217 -773,522 -1235,861 -1994,1431l-1318 974c-173,118 -128,157 -414,153 -875,-9 -1168,441 -1781,1054 -77,76 -264,184 -172,355 25,46 254,260 301,292 -67,99 -162,157 -241,252 -139,165 0,237 69,339 -477,111 -482,579 -523,908 -21,171 -61,262 5,399 185,43 238,20 419,0 510,-58 665,-54 887,-518 102,68 168,222 326,105 104,-77 161,-183 266,-253l413 400c-190,292 -639,457 -432,704 168,201 502,448 635,646z"/>
   <path class="fil1" d="M7747 7631c-28,-103 68,-345 307,-81 53,59 282,249 304,315 68,210 -163,250 -317,92 -61,-63 -275,-255 -294,-326zm373 -846c121,-47 337,226 405,294 38,38 399,324 121,413 -142,45 -343,-217 -416,-290 -64,-64 -374,-316 -110,-417zm728 -324c49,49 447,349 218,469 -163,86 -405,-240 -488,-323 -72,-72 -421,-335 -218,-463 156,-99 404,233 488,317zm-3025 -3044c120,213 569,433 351,594 -193,142 -357,-227 -594,-391 -97,26 -205,142 -301,195 49,89 127,146 204,218 78,74 143,192 21,269 -168,107 -362,-221 -472,-281 -68,17 -242,152 -264,208 6,101 87,76 128,170 42,95 -19,154 -60,191 -219,46 -219,-106 -349,-170 -74,29 -892,633 -941,698 305,357 1130,429 1642,-24 198,-176 380,-359 602,-533 117,-92 200,-158 320,-247 119,-89 212,-152 332,-235 672,-460 1512,-840 2329,-1073 425,-121 637,169 595,448 -64,419 -450,1299 -628,1640 -279,531 -561,965 -889,1378l-528 606c-436,364 -524,1152 -157,1659 215,297 176,152 455,606 17,27 25,39 33,50l546 -724c190,-261 358,-484 544,-737 808,-1104 1379,-1778 2011,-3065 165,-337 674,-1458 716,-1820 -127,-52 -305,-55 -673,-211 -534,-226 -1094,-786 -1319,-1362 -291,-26 -1668,696 -1961,845 -586,298 -1220,740 -1693,1098z"/>
   <path class="fil2 str0" d="M7015 4919c200,51 376,246 426,457 70,292 -82,520 -209,652l-1763 1762c-123,122 -793,852 -922,837 -196,-75 -567,-597 -755,-700l-1071 1042c42,82 1036,1078 1135,1140l3333 -3310c280,-300 546,-657 784,-992 219,-309 868,-1437 930,-1882 -171,-57 -1412,637 -1712,828 -25,16 -81,50 -106,68 -115,84 -59,12 -70,98z"/>
   <path class="fil3 str1" d="M2721 8969l1071 -1042c-133,-216 -55,-223 188,-467 142,-142 266,-265 408,-407l1601 -1602c373,-373 535,-659 1026,-532 11,-86 -45,-14 70,-98 25,-18 81,-52 106,-68 300,-191 1541,-885 1712,-828 21,-24 244,-535 130,-633 -148,-82 -948,259 -1124,331 -1754,719 -2876,2043 -4176,3343 -256,256 -495,495 -752,752 -138,138 -701,657 -752,784 132,118 352,395 492,467z"/>
   <path class="fil4" d="M3546 5118c49,-65 867,-669 941,-698 -41,-70 -345,-305 -145,-422 164,-95 271,152 426,231 22,-56 196,-191 264,-208 -41,-68 -296,-259 -143,-386 139,-116 240,54 307,118 51,49 29,35 83,62 96,-53 204,-169 301,-195 -59,-85 -312,-246 -126,-383 172,-111 221,107 369,180 473,-358 1107,-800 1693,-1098 293,-149 1670,-871 1961,-845 -85,-210 -109,-391 -184,-610 -649,227 -1207,428 -1800,718 -1479,725 -2833,1837 -4189,2835 -113,82 -285,194 -360,287 409,185 436,335 602,414z"/>
   <path class="fil0" d="M4430 7431l483 499 -347 342 -487 -497 351 -344zm561 -557l482 483c-77,115 -235,237 -331,347 -86,-41 -453,-411 -498,-494l347 -336zm213 -194c45,-99 276,-319 356,-374 102,77 420,382 473,487 -56,92 -263,306 -360,345l-469 -458zm917 -940l475 486c-76,140 -228,220 -318,349 -78,-38 -461,-421 -503,-497l346 -338zm209 -210c111,-128 441,-553 734,-243 254,271 -56,621 -254,724l-480 -481zm-2538 2397c188,103 559,625 755,700 129,15 799,-715 922,-837l1763 -1762c127,-132 279,-360 209,-652 -50,-211 -226,-406 -426,-457 -491,-127 -653,159 -1026,532l-1601 1602c-142,142 -266,265 -408,407 -243,244 -321,251 -188,467z"/>
   <path class="fil5 str2" d="M1338 5339c327,351 166,45 672,244 243,95 382,224 510,402 189,260 159,366 193,694 7,75 357,404 429,456 111,-87 250,-244 359,-353l1083 -1086c-1154,14 -1041,-299 -1601,-641 -573,-350 -1380,-153 -1645,284z"/>
   <path class="fil5 str2" d="M5204 9175c41,101 388,420 399,426 44,22 1252,-62 1230,1235l175 174c167,-102 369,-418 433,-705 79,-352 6,-648 -139,-918 -194,-360 -734,-583 -654,-1617 -128,60 -627,598 -725,696 -125,125 -232,232 -357,357 -101,101 -259,280 -362,352z"/>
   <path class="fil5 str2" d="M9591 767c100,1010 984,1873 1983,1986l167 -654c-466,-102 -744,-254 -992,-498 -224,-220 -418,-544 -499,-980 -129,-23 -506,118 -659,146z"/>
   <path class="fil1" d="M10647 892c12,210 304,503 417,593 184,146 422,293 729,314 84,-151 196,-864 248,-1095 -245,-108 -468,-27 -734,30 -134,30 -584,104 -660,158z"/>
   <path class="fil6" d="M5393 10269l779 783c67,-54 351,-315 364,-391 32,-192 -151,-440 -234,-520 -469,-450 -637,-174 -909,128z"/>
   <path class="fil6" d="M1288 6145c44,89 678,716 769,786 60,-63 338,-318 354,-370 68,-216 -291,-748 -702,-753 -120,-2 -155,79 -221,145 -69,71 -124,137 -200,192z"/>
   <path class="fil4 str3" d="M10647 892c76,-54 526,-128 660,-158 266,-57 489,-138 734,-30 21,-420 -277,-428 -626,-354 -296,62 -582,128 -876,186 11,116 33,288 108,356z"/>
   <path class="fil7" d="M1959 8815c0,-153 -150,-148 -247,-148 -349,0 -571,148 -775,309 -92,72 -182,195 -244,299 -67,112 -172,277 -32,371 266,181 265,-567 909,-653 89,-12 389,31 389,-178z"/>
   <path class="fil5 str2" d="M5680 11542c71,-52 234,-202 273,-291l-756 -766c-95,49 -234,205 -297,278l780 779z"/>
   <path class="fil5 str2" d="M799 6641c49,93 660,691 765,782l284 -285c-219,-168 -589,-647 -777,-748l-272 251z"/>
   <path class="fil8" d="M6330 5530l480 481c198,-103 508,-453 254,-724 -293,-310 -623,115 -734,243z"/>
   <path class="fil9" d="M2035 10378c181,-11 477,-23 599,-124 426,-351 -210,-841 -480,-480 -83,111 -104,432 -119,604z"/>
   <path class="fil9" d="M325 7881c181,-14 473,-22 601,-124 148,-118 177,-362 35,-508 -136,-140 -407,-104 -514,29 -100,124 -105,423 -122,603z"/>
   <path class="fil9" d="M4496 11911l-12 106 79 -5c195,11 442,-22 553,-139 305,-324 -173,-770 -483,-483 -105,97 -137,333 -137,521z"/>
   <path class="fil0" d="M3437 10515c-54,234 -7,564 -301,833 -76,70 -167,88 -167,227 0,95 161,277 477,-115 80,-100 152,-208 199,-343 78,-228 189,-798 -208,-602z"/>
   <path class="fil8" d="M5204 6680l469 458c97,-39 304,-253 360,-345 -53,-105 -371,-410 -473,-487 -80,55 -311,275 -356,374z"/>
   <path class="fil6" d="M4644 7210c45,83 412,453 498,494 96,-110 254,-232 331,-347l-482 -483 -347 336z"/>
   <path class="fil6" d="M5775 6078c42,76 425,459 503,497 90,-129 242,-209 318,-349l-475 -486 -346 338z"/>
   <polygon class="fil8" points="4079,7775 4566,8272 4913,7930 4430,7431 "/>
   <path class="fil8" d="M2150 7280l425 418 346 -336c-46,-92 -326,-363 -420,-429l-351 347z"/>
   <path class="fil8" d="M4639 9742c46,84 351,389 435,434 93,-124 251,-209 318,-351l-395 -408c-149,74 -233,232 -358,325z"/>
   <path class="fil0" d="M8360 6144c-203,128 146,391 218,463 83,83 325,409 488,323 229,-120 -169,-420 -218,-469 -84,-84 -332,-416 -488,-317z"/>
   <path class="fil0" d="M5580 3620c237,164 401,533 594,391 218,-161 -231,-381 -351,-594 -148,-73 -197,-291 -369,-180 -186,137 67,298 126,383z"/>
   <path class="fil0" d="M5032 4021c110,60 304,388 472,281 122,-77 57,-195 -21,-269 -77,-72 -155,-129 -204,-218 -54,-27 -32,-13 -83,-62 -67,-64 -168,-234 -307,-118 -153,127 102,318 143,386z"/>
   <path class="fil0" d="M8120 6785c-264,101 46,353 110,417 73,73 274,335 416,290 278,-89 -83,-375 -121,-413 -68,-68 -284,-341 -405,-294z"/>
   <path class="fil10" d="M1737 11304c-34,51 -74,64 -74,123 0,224 176,173 443,173 281,0 321,-77 321,-222 0,-139 -159,-116 -267,-96 -135,26 -256,22 -423,22z"/>
   <path class="fil0" d="M4487 4420c130,64 130,216 349,170 41,-37 102,-96 60,-191 -41,-94 -122,-69 -128,-170 -155,-79 -262,-326 -426,-231 -200,117 104,352 145,422z"/>
   <path class="fil0" d="M7747 7631c19,71 233,263 294,326 154,158 385,118 317,-92 -22,-66 -251,-256 -304,-315 -239,-264 -335,-22 -307,81z"/>
   <path class="fil0" d="M159 10195c0,302 419,264 419,25 0,-302 -419,-264 -419,-25z"/>
   <path class="fil8" d="M6800 11222l-183 -170c-141,73 -222,226 -349,319 39,74 131,167 197,199l335 -348z"/>
   <path class="fil8" d="M767 5897l181 174c69,-53 308,-281 348,-366 -73,-51 -106,-106 -181,-158l-348 350z"/>
   <path class="fil10" d="M2033 12167c0,328 557,122 303,-131 -115,-115 -303,-47 -303,131z"/>
   <path class="fil7" d="M11 10885c0,167 162,233 272,150 104,-77 101,-298 -124,-298 -59,0 -148,89 -148,148z"/>
   <path class="fil10" d="M3906 10713c0,241 320,282 320,-25 0,-174 -320,-149 -320,25z"/>
   <path class="fil11" d="M4563 12012l-79 5 12 -106c-39,73 -30,40 -23,137l90 -36z"/>
  </g>
 </g>
</svg>
