<svg width="80" height="72" viewBox="0 0 80 72" fill="none" xmlns="http://www.w3.org/2000/svg">
<path d="M31.5641 52.0627C31.2619 52.0627 30.9575 51.9588 30.7092 51.7473L22.1626 44.4698C21.8678 44.2185 21.6982 43.8515 21.6982 43.4638C21.6982 43.0769 21.8685 42.7098 22.1626 42.4585L30.7092 35.1811C31.2641 34.7079 32.0977 34.775 32.5709 35.33C33.0433 35.8857 32.977 36.7193 32.4213 37.1917L25.0561 43.4638L32.4213 49.7359C32.977 50.2091 33.0433 51.0427 32.5709 51.5976C32.3092 51.905 31.9378 52.0627 31.5641 52.0627Z" fill="#0378A6"/>
<path d="M48.4362 52.0627C48.0625 52.0627 47.691 51.905 47.4301 51.5976C46.9569 51.0427 47.024 50.2091 47.579 49.7359L54.9441 43.4638L47.579 37.1917C47.024 36.7193 46.9569 35.8857 47.4301 35.33C47.9025 34.775 48.7369 34.7079 49.2911 35.1811L57.8377 42.4585C58.1325 42.7098 58.302 43.0769 58.302 43.4638C58.302 43.8515 58.1325 44.2185 57.8377 44.4698L49.2911 51.7473C49.0427 51.9588 48.7383 52.0627 48.4362 52.0627V52.0627Z" fill="#0378A6"/>
<path d="M36.9747 57.5214C36.884 57.5214 36.7927 57.5118 36.7005 57.4926C35.9871 57.3423 35.5301 56.6414 35.6805 55.9279L41.007 30.6383C41.1573 29.9248 41.8575 29.4679 42.5717 29.6182C43.2851 29.7686 43.7421 30.4688 43.5918 31.1829L38.2652 56.4726C38.134 57.0946 37.5857 57.5214 36.9747 57.5214V57.5214Z" fill="#0378A6"/>
<path d="M71.1321 71.2993H8.86792C3.97848 71.2993 0 67.3216 0 62.4314V9.58497C0 4.69552 3.97848 0.717041 8.86792 0.717041H71.1321C76.0215 0.717041 80 4.69552 80 9.58497V62.4314C80 67.3216 76.0215 71.2993 71.1321 71.2993ZM8.86792 3.35855C5.43485 3.35855 2.64151 6.15189 2.64151 9.58497V62.4314C2.64151 65.8644 5.43485 68.6578 8.86792 68.6578H71.1321C74.5652 68.6578 77.3585 65.8644 77.3585 62.4314V9.58497C77.3585 6.15189 74.5652 3.35855 71.1321 3.35855H8.86792Z" fill="#0378A6"/>
<path d="M78.6792 21.8661H1.32075C0.591097 21.8661 0 21.275 0 20.5454C0 19.8164 0.591097 19.2246 1.32075 19.2246H78.6792C79.4089 19.2246 80 19.8164 80 20.5454C80 21.275 79.4089 21.8661 78.6792 21.8661Z" fill="#0378A6"/>
<path d="M22.5664 15.5459C20.2625 15.5459 18.3867 13.6702 18.3867 11.3662C18.3867 9.06152 20.2625 7.18652 22.5664 7.18652C24.8711 7.18652 26.7461 9.06152 26.7461 11.3662C26.7461 13.6702 24.8711 15.5459 22.5664 15.5459ZM22.5664 9.82803C21.7188 9.82803 21.0282 10.5179 21.0282 11.3662C21.0282 12.2145 21.7188 12.9044 22.5664 12.9044C23.4147 12.9044 24.1046 12.2145 24.1046 11.3662C24.1046 10.5179 23.4147 9.82803 22.5664 9.82803Z" fill="#0378A6"/>
<path d="M9.72412 15.5054C7.41943 15.5054 5.54443 13.6304 5.54443 11.3257C5.54443 9.021 7.41943 7.146 9.72412 7.146C12.0288 7.146 13.9038 9.021 13.9038 11.3257C13.9038 13.6304 12.0288 15.5054 9.72412 15.5054ZM9.72412 9.78751C8.87654 9.78751 8.18594 10.4781 8.18594 11.3257C8.18594 12.174 8.87654 12.8639 9.72412 12.8639C10.5724 12.8639 11.2623 12.174 11.2623 11.3257C11.2623 10.4781 10.5724 9.78751 9.72412 9.78751Z" fill="#0378A6"/>
<path d="M35.4084 15.5857C33.1045 15.5857 31.2295 13.7107 31.2295 11.406C31.2295 9.10205 33.1045 7.22705 35.4084 7.22705C37.7131 7.22705 39.5881 9.10205 39.5881 11.406C39.5881 13.7107 37.7131 15.5857 35.4084 15.5857ZM35.4084 9.86782C34.5609 9.86782 33.871 10.5577 33.871 11.406C33.871 12.2543 34.5609 12.9442 35.4084 12.9442C36.2568 12.9442 36.9466 12.2543 36.9466 11.406C36.9466 10.5577 36.2568 9.86782 35.4084 9.86782Z" fill="#0378A6"/>
</svg>
