<?xml version="1.0" encoding="UTF-8"?>
<!DOCTYPE svg PUBLIC "-//W3C//DTD SVG 1.1//EN" "http://www.w3.org/Graphics/SVG/1.1/DTD/svg11.dtd">
<!-- Creator: CorelDRAW X7 -->
<svg xmlns="http://www.w3.org/2000/svg" xml:space="preserve" width="113.986mm" height="129.319mm" version="1.1" style="shape-rendering:geometricPrecision; text-rendering:geometricPrecision; image-rendering:optimizeQuality; fill-rule:evenodd; clip-rule:evenodd"
viewBox="0 0 12622 14320"
 xmlns:xlink="http://www.w3.org/1999/xlink">
 <defs>
  <style type="text/css">
   <![CDATA[
    .fil6 {fill:black}
    .fil1 {fill:black}
    .fil0 {fill:#049DBF}
    .fil3 {fill:#331D1C}
    .fil4 {fill:#331D1C}
    .fil8 {fill:#4C4136}
    .fil5 {fill:#614C4B}
    .fil11 {fill:#C2987E}
    .fil7 {fill:#C2987E}
    .fil2 {fill:#E3B294}
    .fil9 {fill:#FF4F6D}
    .fil10 {fill:white}
   ]]>
  </style>
 </defs>
 <g id="Camada_x0020_1">
  <metadata id="CorelCorpID_0Corel-Layer"/>
  <ellipse class="fil0" cx="6311" cy="8050" rx="6311" ry="6270"/>
  <path class="fil1" d="M6330 9794c2277,0 4194,989 4773,2336 -1158,1340 -2875,2190 -4792,2190 -1903,0 -3608,-837 -4766,-2160 563,-1362 2492,-2366 4785,-2366z"/>
  <path class="fil2" d="M3417 6821c-306,-39 -545,-303 -545,-619l0 -752c0,-323 248,-591 563,-622 -20,-137 -31,-276 -31,-419 0,-1585 1306,-2871 2916,-2871 1610,0 2915,1286 2915,2871 0,142 -11,280 -31,416 333,12 602,289 602,625l0 752c0,330 -259,602 -584,623 -96,1022 -735,1889 -1631,2317l0 1148c0,691 -565,1256 -1256,1256l0 0c-691,0 -1256,-565 -1256,-1256l0 -1133c-913,-424 -1567,-1300 -1662,-2336z"/>
  <path class="fil3" d="M4684 2336c-12,37 11,155 -10,290 -21,135 -86,288 -169,385 -83,98 -184,140 -301,245 -118,104 -251,270 -292,431 -40,161 12,317 38,410 26,93 26,122 -2,122 -28,0 -83,-29 -124,-54 -40,-24 -66,-44 -89,20 -23,63 -42,210 -46,358 -3,148 10,298 16,421 6,124 4,220 3,334 -2,114 -4,245 -8,338 -4,94 -11,149 -27,193 -16,44 -42,76 -52,156 -10,80 -3,207 2,272 4,65 8,68 -12,54 -19,-15 -62,-48 -99,-142 -38,-94 -70,-251 -91,-412 -21,-161 -31,-327 -39,-481 -7,-154 -12,-295 -19,-365 -7,-70 -16,-68 -31,-63 -16,5 -39,12 -58,19 -20,8 -36,15 -59,27 -22,12 -52,30 -74,45 -23,15 -39,28 -73,-1 -34,-29 -85,-101 -97,-136 -11,-36 18,-36 49,-43 31,-6 64,-19 88,-60 25,-40 41,-109 31,-169 -10,-60 -45,-112 -80,-150 -34,-37 -66,-60 -114,-177 -47,-117 -109,-329 -118,-506 -10,-178 32,-321 58,-450 26,-128 36,-242 78,-322 43,-80 118,-125 153,-177 36,-52 33,-111 26,-186 -6,-75 -16,-166 -18,-255 -1,-90 5,-178 61,-319 55,-142 159,-337 221,-453 62,-115 81,-151 132,-177 50,-26 132,-43 200,-43 68,0 124,17 156,12 33,-5 43,-31 61,-111 17,-80 44,-213 104,-327 60,-114 154,-208 226,-288 72,-80 120,-145 155,-137 34,8 53,90 86,129 32,39 78,35 211,-15 134,-51 355,-150 507,-217 151,-67 232,-101 330,-133 98,-33 212,-62 334,-76 122,-15 252,-15 301,0 49,14 16,43 0,76 -16,32 -16,66 54,60 70,-7 210,-54 346,-114 137,-60 271,-131 440,-159 169,-28 374,-12 472,6 97,18 88,38 63,70 -24,33 -63,78 34,120 98,42 333,80 471,67 138,-13 181,-77 221,-65 41,12 80,100 91,175 12,74 -5,136 -11,187 -7,50 -3,89 80,91 83,2 246,-34 366,-31 120,3 199,46 203,99 5,54 -63,119 -97,179 -34,61 -34,116 19,158 54,43 161,72 264,90 103,18 200,24 272,49 71,24 117,66 153,123 36,57 62,129 65,176 3,47 -16,70 -44,90 -28,19 -64,35 -83,81 -20,46 -23,120 -10,199 13,78 42,159 41,249 -2,89 -34,187 -70,258 -36,72 -75,118 -85,157 -10,39 10,71 41,97 31,26 73,46 96,87 23,40 26,102 18,144 -8,43 -28,65 -54,92 -26,26 -58,55 -75,133 -16,78 -16,205 23,262 39,57 117,44 158,80 41,36 44,120 11,207 -32,86 -101,174 -122,257 -21,83 5,161 44,224 39,64 91,113 103,170 11,57 -18,122 -70,174 -52,52 -127,91 -165,146 -37,56 -37,127 -30,177 8,51 23,79 6,84 -16,5 -63,-14 -100,-26 -36,-11 -62,-16 -96,26 -34,42 -77,132 -100,196 -23,64 -26,103 -28,154 -2,50 -2,112 3,174 5,62 15,123 7,220 -8,96 -34,226 -51,291 -16,65 -22,65 -27,23 -5,-43 -8,-127 -17,-217 -8,-90 -21,-185 -46,-242 -24,-57 -60,-76 -84,-141 -24,-64 -37,-175 -29,-274 8,-100 37,-188 55,-282 18,-94 25,-195 23,-311 -2,-115 -11,-246 -21,-377 -10,-132 -20,-266 -44,-337 -24,-72 -64,-82 -109,-113 -46,-31 -98,-83 -143,-154 -46,-72 -85,-163 -113,-236 -27,-74 -44,-129 -79,-135 -36,-7 -92,35 -145,57 -54,21 -106,21 -174,-7 -69,-28 -153,-83 -215,-155 -62,-71 -101,-159 -194,-175 -93,-17 -239,39 -386,66 -146,28 -293,28 -399,-1 -105,-30 -170,-88 -226,-152 -55,-63 -101,-132 -128,-162 -28,-31 -38,-25 -83,1 -46,26 -127,72 -287,85 -159,13 -397,-7 -539,-34 -141,-28 -187,-64 -224,-106 -38,-42 -67,-91 -122,-104 -56,-13 -137,9 -212,19 -75,10 -143,7 -197,-6 -54,-13 -93,-36 -135,-69 -42,-32 -88,-75 -99,-37z"/>
  <path class="fil4" d="M4017 4810c-7,-16 -7,-57 17,-105 25,-48 74,-103 126,-151 53,-48 110,-89 181,-125 71,-36 156,-67 244,-89 89,-22 182,-35 262,-39 81,-5 149,-2 240,20 90,22 202,63 280,97 79,34 122,62 156,86 33,24 56,46 68,64 12,19 14,35 0,42 -14,6 -43,3 -128,-4 -86,-8 -227,-19 -388,-13 -160,5 -339,28 -491,56 -151,28 -275,60 -358,88 -84,27 -128,50 -157,66 -30,15 -44,23 -52,7z"/>
  <path class="fil4" d="M8691 4810c8,-16 8,-57 -17,-105 -24,-48 -73,-103 -126,-151 -53,-48 -110,-89 -181,-125 -70,-36 -155,-67 -244,-89 -88,-22 -181,-35 -262,-39 -80,-5 -149,-2 -239,20 -90,22 -203,63 -281,97 -78,34 -122,62 -155,86 -34,24 -56,46 -69,64 -12,19 -13,35 0,42 14,6 44,3 129,-4 85,-8 227,-19 387,-13 161,5 340,28 491,56 152,28 275,60 359,88 84,27 128,50 157,66 29,15 44,23 51,7z"/>
  <path class="fil5" d="M4268 5564c-9,15 -16,25 -18,34 -2,10 2,18 8,26 5,8 12,14 25,13 13,-2 32,-12 63,-32 31,-20 73,-51 125,-76 52,-24 113,-42 170,-53 58,-11 113,-15 171,-15 59,0 122,4 180,15 58,10 112,27 166,53 55,26 110,61 142,85 32,24 41,36 51,40 9,4 19,0 23,-11 4,-12 2,-31 -8,-59 -11,-29 -30,-68 -73,-118 -44,-49 -110,-108 -181,-147 -71,-39 -146,-57 -210,-65 -64,-9 -118,-9 -175,-3 -56,6 -116,18 -173,45 -58,27 -114,68 -156,106 -42,37 -70,70 -89,98 -20,27 -31,48 -41,64z"/>
  <path class="fil5" d="M8395 5564c10,15 17,25 19,34 1,10 -3,18 -8,26 -5,8 -12,14 -25,13 -13,-2 -32,-12 -63,-32 -31,-20 -74,-51 -125,-76 -52,-24 -113,-42 -171,-53 -58,-11 -112,-15 -171,-15 -58,0 -121,4 -179,15 -58,10 -112,27 -167,53 -54,26 -109,61 -142,85 -32,24 -41,36 -50,40 -9,4 -19,0 -23,-11 -4,-12 -3,-31 8,-59 10,-29 30,-68 73,-118 43,-49 110,-108 181,-147 71,-39 145,-57 210,-65 64,-9 118,-9 174,-3 57,6 116,18 174,45 58,27 114,68 156,106 42,37 69,70 89,98 20,27 31,48 40,64z"/>
  <circle class="fil6" cx="3224" cy="6539" r="86"/>
  <path class="fil7" d="M6956 6497c-12,227 -286,408 -622,408 -336,0 -610,-181 -622,-408l1244 0z"/>
  <path class="fil8" d="M5445 7388c594,0 1187,0 1780,0 12,1 24,1 40,10 16,9 36,27 46,48 10,21 10,47 4,85 -5,38 -16,89 -40,162 -25,72 -63,166 -129,265 -66,99 -161,204 -264,274 -104,69 -216,104 -309,123 -92,19 -166,23 -243,23 -77,-1 -159,-6 -253,-30 -95,-24 -202,-67 -300,-134 -99,-68 -188,-160 -257,-266 -69,-106 -117,-227 -141,-308 -24,-80 -24,-121 -22,-150 3,-30 8,-47 17,-61 9,-14 22,-26 34,-32 13,-7 25,-8 37,-9z"/>
  <path class="fil9" d="M6061 7959c103,0 198,27 272,72 74,-45 169,-72 273,-72 172,0 321,74 388,181 -36,34 -73,66 -112,92 -104,69 -216,104 -309,123 -92,19 -166,23 -243,23 -77,-1 -159,-6 -253,-30 -95,-24 -202,-67 -300,-134 -35,-24 -68,-51 -100,-80 69,-104 215,-175 384,-175z"/>
  <path class="fil10" d="M7182 7388c-3,136 -115,247 -252,247l-1141 0c-136,0 -249,-111 -252,-247l1645 0z"/>
  <path class="fil11" d="M5079 9157c377,174 797,272 1241,272 456,0 887,-103 1271,-287l0 430c-384,184 -815,287 -1271,287 -444,0 -864,-98 -1241,-272l0 -430z"/>
 </g>
</svg>
