<?xml version="1.0" encoding="UTF-8"?>
<!DOCTYPE svg PUBLIC "-//W3C//DTD SVG 1.1//EN" "http://www.w3.org/Graphics/SVG/1.1/DTD/svg11.dtd">
<!-- Creator: CorelDRAW X7 -->
<svg xmlns="http://www.w3.org/2000/svg" xml:space="preserve" width="113.986mm" height="126.683mm" version="1.1" style="shape-rendering:geometricPrecision; text-rendering:geometricPrecision; image-rendering:optimizeQuality; fill-rule:evenodd; clip-rule:evenodd"
viewBox="0 0 32614 36247"
 xmlns:xlink="http://www.w3.org/1999/xlink">
 <defs>
  <style type="text/css">
   <![CDATA[
    .fil1 {fill:black}
    .fil0 {fill:#049DBF}
    .fil2 {fill:#212121}
    .fil4 {fill:#C2987E}
    .fil5 {fill:#C2987E}
    .fil3 {fill:#E3B294}
    .fil6 {fill:white}
   ]]>
  </style>
 </defs>
 <g id="Camada_x0020_1">
  <metadata id="CorelCorpID_0Corel-Layer"/>
  <g id="_2890250907984">
   <ellipse class="fil0" cx="16307" cy="20046" rx="16307" ry="16200"/>
   <path class="fil1" d="M16357 24553c5882,0 10835,2555 12331,6036 -2991,3463 -7428,5658 -12381,5658 -4916,0 -9324,-2162 -12314,-5580 1455,-3520 6439,-6114 12364,-6114z"/>
   <path class="fil2" d="M7859 28418c472,543 1179,1310 2238,1916 1060,606 2473,1050 3907,1252 1433,202 2887,161 4219,-61 1332,-222 2544,-626 3452,-1171 908,-545 1514,-1231 1827,-1796 313,-566 333,-1010 514,-1308 180,-299 521,-451 909,-383 388,68 822,358 1234,679 411,321 800,673 1171,1092 372,418 727,902 881,1414 91,300 113,609 136,920 948,-1031 1763,-2184 2420,-3433 -43,-48 -87,-96 -131,-144 -788,-848 -1786,-1690 -2557,-2383 -772,-694 -1317,-1239 -2407,-1390 -1090,-152 -2725,91 -3825,-17 -1101,-107 -1666,-563 -3031,-521 -1364,43 -3528,584 -5072,742 -1545,157 -2469,-69 -3477,-172 -1007,-103 -2097,-83 -3097,301 -999,383 -1907,1130 -2767,1812 -860,681 -1672,1296 -2116,2043 -53,89 -100,179 -143,271 644,1118 1419,2152 2303,3083 107,-582 142,-1098 279,-1516 149,-454 419,-791 666,-1066 247,-275 470,-488 719,-703 250,-214 527,-430 783,-378 257,52 494,373 965,917z"/>
   <path class="fil3" d="M8829 16872c-791,-103 -435,-784 -435,-1602l0 -1943c0,-834 -332,-1526 482,-1607 -52,-353 -79,-713 -79,-1081 0,-4097 3372,-7418 7532,-7418 4160,0 7533,3321 7533,7418 0,365 -27,724 -79,1074 861,32 610,746 610,1614l0 1943c0,853 275,1556 -564,1611 -247,2641 -1900,4880 -4214,5987l0 2966c0,1785 -1460,3246 -3245,3246l0 0c-1785,0 -3246,-1461 -3246,-3246l0 -2928c-2359,-1094 -4048,-3359 -4295,-6034z"/>
   <path class="fil4" d="M13124 22906c973,451 2059,704 3205,704 1179,0 2293,-267 3286,-742l0 1110c-993,476 -2107,742 -3286,742 -1146,0 -2232,-252 -3205,-704l0 -1110z"/>
   <path class="fil5" d="M17974 16034c-32,585 -739,1053 -1607,1053 -869,0 -1576,-468 -1608,-1053l3215 0z"/>
   <path class="fil1" d="M25303 5247c-121,-1540 -439,-3044 -729,-4033 -290,-990 -552,-1464 -755,-1082 -203,382 -347,1619 -490,2857 -2214,-770 -4428,-1541 -6706,-1541 -2277,0 -4619,771 -6961,1541 -167,-1227 -334,-2455 -498,-2837 -165,-382 -326,82 -651,1067 -326,984 -815,2488 -1024,4592 -209,2105 -138,4811 -103,6487 35,1677 35,2324 106,2958 72,633 214,1252 548,1901 335,650 861,1330 1388,2011 -28,-683 -56,-1366 1,-1884 57,-518 198,-872 1100,-1053 903,-180 2567,-189 3666,-17 1100,171 1636,522 2172,522 536,0 1071,-351 2041,-522 969,-172 2372,-163 3215,22 843,186 1126,550 1296,1076 171,527 230,1217 288,1907 524,-722 1047,-1444 1398,-2058 352,-615 532,-1122 622,-1785 90,-662 91,-1480 83,-2412 -7,-932 -22,-1977 8,-3288 30,-1311 106,-2888 -15,-4429z"/>
   <path class="fil6" d="M14101 13393c0,116 0,232 0,348 -1044,15 -2089,30 -3134,45 -65,-494 -131,-989 -197,-1484 1111,364 2221,727 3331,1091z"/>
   <path class="fil6" d="M18620 13393c0,116 0,232 0,348 1045,15 2090,30 3134,45 66,-494 132,-989 197,-1484 -1110,364 -2220,727 -3331,1091z"/>
   <rect class="fil1" x="13843" y="19052" width="5069" height="262" rx="201" ry="131"/>
  </g>
 </g>
</svg>
