<svg width="70" height="70" viewBox="0 0 70 70" fill="none" xmlns="http://www.w3.org/2000/svg">
<path d="M69.4417 9.4101L66.1178 6.77612L69.4417 4.14268C69.9586 3.73253 70.1354 3.09326 69.8927 2.51327C69.6488 1.93275 69.0464 1.55785 68.3574 1.55785H54.6025V1.02592C54.6025 0.45929 54.0921 0 53.4625 0C52.8329 0 52.3225 0.45929 52.3225 1.02592V14.8623L42.9597 19.4376C42.908 19.0669 42.7846 18.7027 42.5894 18.3598L41.2701 16.042C40.3645 14.4505 38.1889 13.8198 36.4217 14.6342L35.4015 15.1042C34.5446 15.4994 33.9102 16.1702 33.6146 16.9948C33.3191 17.8188 33.398 18.6974 33.8372 19.468L35.1564 21.7863C35.4644 22.3273 35.9196 22.7557 36.4549 23.0558C35.7546 23.9044 35.4223 24.948 35.0805 26.0321L34.8348 26.815C34.6633 27.3603 35.0158 27.9275 35.6217 28.0813C35.7249 28.108 35.8294 28.1203 35.9321 28.1203C36.4294 28.1203 36.8863 27.8255 37.0287 27.3731L37.2744 26.5918C37.7741 25.0062 38.0809 24.157 39.0577 23.6796L40.809 22.8235L41.025 22.7242C41.0968 22.691 41.1639 22.6537 41.2321 22.6168L53.7135 16.5173C53.6346 17.9214 52.7949 19.248 51.4121 20.0037L43.2956 24.4417C43.2861 24.4465 43.2766 24.4513 43.2677 24.4566L40.7414 25.8377C40.2037 26.132 40.0322 26.7632 40.3592 27.2476C40.6672 27.7042 41.3081 27.8666 41.8309 27.6375L39.9141 32.852L38.513 33.369L34.703 34.7741L35.8009 31.2814C35.9718 30.7361 35.6199 30.1689 35.014 30.0146C34.4075 29.8597 33.7778 30.1775 33.6063 30.7227L31.8717 36.2433C31.8491 36.3143 31.8343 36.3923 31.8307 36.4665L31.3768 43.9711C31.3631 44.2574 31.4308 44.7984 31.2836 45.0777L26.2417 54.6234H22.5777C20.4312 54.6234 18.6853 56.1946 18.6853 58.1258V61.0871C18.1939 60.8847 17.6485 60.7715 17.0735 60.7715H7.76882C5.62291 60.7715 3.87699 62.3421 3.87699 64.2738V67.9482H1.14001C0.510365 67.9482 0 68.4074 0 68.9741C0 69.5407 0.510365 70 1.14001 70H68.3562C68.9859 70 69.4963 69.5407 69.4963 68.9741C69.4963 68.4074 68.9859 67.9482 68.3562 67.9482H65.3914V41.5043C65.3914 39.5731 63.6455 38.0019 61.4996 38.0019H54.6025V20.1041C55.8666 18.5622 56.3348 16.5414 55.7479 14.6209C55.6559 14.3192 55.4155 14.0713 55.0951 13.949C54.9378 13.8887 54.7693 13.862 54.6025 13.8679V11.9949H68.3568C69.0464 11.9949 69.6488 11.62 69.8921 11.04C70.1354 10.4601 69.9586 9.82025 69.4417 9.4101ZM35.7849 17.625C35.8935 17.3222 36.1261 17.0754 36.4406 16.9307L37.4608 16.4607C37.6531 16.3721 37.8584 16.3299 38.0613 16.3299C38.542 16.3299 39.0067 16.5665 39.2405 16.9772L40.5604 19.2955C40.8684 19.837 40.669 20.4934 40.1212 20.825L39.7497 21.0061L38.9658 21.3676C38.3171 21.6667 37.5183 21.4349 37.186 20.8507L35.8662 18.5329C35.7054 18.2498 35.6763 17.9272 35.7849 17.625ZM33.4942 54.939C33.1067 54.7799 32.6853 54.6757 32.2426 54.6389L33.4942 53.143V54.939ZM38.907 46.6724C39.4554 46.0812 39.6067 45.3906 39.7289 44.8341C39.7598 44.7017 40.3224 41.9363 40.3224 41.9363C40.3224 41.9363 40.8547 42.2349 40.9105 42.2562C40.9491 42.2717 40.9764 42.3059 40.9805 42.346L41.6007 48.0193H37.7801L38.907 46.6724ZM45.6486 41.0098L44.686 48.0144H43.8914L43.2499 42.1452C43.168 41.3932 42.6564 40.7368 41.9069 40.4105L40.7603 39.7563L41.5241 35.9469C41.5241 35.9469 44.7418 39.3867 44.8166 39.4743C45.4824 40.2535 45.7103 40.5654 45.6486 41.0098ZM33.3345 45.9749C33.5648 45.3511 33.6716 44.7161 33.6538 44.0704L34.068 37.226L39.3408 35.2814L38.3824 40.0591C38.3794 40.0719 38.3765 40.0853 38.3747 40.0981L37.5818 44.0485C37.4786 44.4576 37.3884 45.0782 37.1047 45.4152L29.4012 54.6234H28.7662L33.3345 45.9749ZM6.15702 64.2733C6.15702 63.4738 6.87984 62.8233 7.76882 62.8233H17.0735C17.9625 62.8233 18.6859 63.4738 18.6859 64.2733V67.9482H6.15702V64.2733ZM20.9653 64.2733V58.1258C20.9653 57.3257 21.6887 56.6753 22.5777 56.6753H31.8824C32.7714 56.6753 33.4942 57.3257 33.4942 58.1258V67.9482H20.9659L20.9653 64.2733ZM63.1114 41.5043V67.9482H50.5831V61.7969C50.5831 61.2302 50.0727 60.7709 49.4431 60.7709C48.8128 60.7709 48.3025 61.2302 48.3025 61.7969V67.9482H35.7742V51.5211C35.7742 50.7216 36.497 50.0711 37.386 50.0711H46.6907C47.5797 50.0711 48.3025 50.7216 48.3025 51.5211V56.664C48.3025 57.2307 48.8128 57.69 49.4425 57.69C50.0727 57.69 50.5825 57.2307 50.5825 56.664V41.5043C50.5825 40.7043 51.3059 40.0538 52.1949 40.0538H53.4506C53.4542 40.0538 53.4583 40.0543 53.4625 40.0543C53.4661 40.0543 53.4702 40.0538 53.4738 40.0538H61.499C62.3879 40.0538 63.1114 40.7048 63.1114 41.5043ZM52.1949 38.0019C50.049 38.0019 48.3031 39.5731 48.3031 41.5043V48.3349C47.8948 48.1672 47.4497 48.0609 46.9815 48.0299L47.9114 41.2624C48.0942 39.9432 47.3464 39.069 46.6236 38.223C46.5471 38.1333 42.1158 33.3984 42.1158 33.3984L44.8344 26.0017L52.3225 21.9076V38.0019H52.1949ZM54.6025 9.94255V3.61023H66.6631L64.0656 5.66849C63.7119 5.94887 63.509 6.35261 63.509 6.77666C63.509 7.2007 63.7119 7.60445 64.0656 7.88483L66.6631 9.94308L54.6025 9.94255Z" fill="#0378A6"/>
</svg>
