<svg width="70" height="70" viewBox="0 0 70 70" fill="none" xmlns="http://www.w3.org/2000/svg">
<path d="M67.7417 67.7241H69.9998V69.9999H67.7417V67.7241Z" fill="#0378A6"/>
<path d="M0 67.7241H2.25806V69.9999H0V67.7241Z" fill="#0378A6"/>
<path d="M57.4968 52.1726C56.2868 48.6883 53.408 46.1303 49.9564 45.2769L44.755 27.305C43.6056 23.3324 40.1474 20.4638 36.129 20.0043V15.0454L53.8953 8.65033L33.871 0V20.0043C33.189 20.0826 32.522 20.226 31.8803 20.4376C29.9453 18.9586 27.3702 18.428 25.0372 19.0697C23.396 15.4594 19.8182 13.1052 15.8065 13.1052C10.2032 13.1052 5.64516 17.699 5.64516 23.3463C5.64516 23.758 5.67328 24.1675 5.72179 24.5753C2.4863 25.087 0 27.9079 0 31.3115C0 35.0769 3.03813 38.1389 6.77419 38.1389H22.1098L21.4516 40.4147C16.9647 40.4147 12.9536 43.4472 11.6977 47.7871L5.92742 67.7242H3.3871V69.9999H65.4839V67.7242H62.8983L57.4968 52.1726ZM36.129 3.45258L47.7176 8.45698L36.129 12.6285V3.45258ZM37.9367 57.3464C38.5823 58.0532 39.4494 58.621 40.6385 58.621C43.0284 58.621 44.142 56.3791 45.035 54.5778C45.8928 52.846 46.4833 51.7936 47.4116 51.7936C48.3406 51.7936 48.931 52.846 49.7904 54.5778C50.6857 56.3791 51.7977 58.621 54.1902 58.621C55.3838 58.621 56.252 58.0509 56.8998 57.342L60.5047 67.7242H34.334L37.9367 57.3464ZM55.3656 52.9232L55.9808 54.6961C55.3182 55.884 54.811 56.3452 54.1902 56.3452C53.2608 56.3452 52.6703 55.2923 51.8114 53.5605C50.9173 51.7592 49.8037 49.5178 47.4116 49.5178C45.0202 49.5178 43.9071 51.7592 43.014 53.5605C42.1557 55.2923 41.5664 56.3452 40.6385 56.3452C40.0195 56.3452 39.515 55.8863 38.8546 54.7023L39.472 52.9232C40.6529 49.5256 43.847 47.2421 47.4194 47.2421C50.9917 47.2421 54.1858 49.5256 55.3656 52.9232ZM47.4194 44.9663C42.8883 44.9663 38.8386 47.8621 37.3408 52.1726L34.6874 59.8144L31.2066 47.7871C30.168 44.1979 27.2434 41.5092 23.7257 40.683L25.4958 34.5669C26.153 35.2964 27.0246 35.8631 28.2192 35.8631C30.609 35.8631 31.7226 33.6212 32.6157 31.8199C33.4735 30.0881 34.0639 29.0357 34.9923 29.0357C35.9212 29.0357 36.5116 30.0881 37.3711 31.8199C38.2664 33.6212 39.3783 35.8631 41.7709 35.8631C42.9688 35.8631 43.8426 35.2919 44.502 34.5613L47.5142 44.9707C47.4828 44.9696 47.4508 44.9663 47.4194 44.9663ZM42.5873 27.9434L43.68 31.7188C42.9484 33.0823 42.4269 33.5873 41.7709 33.5873C40.8414 33.5873 40.251 32.5344 39.3921 30.8026C38.4979 29.0013 37.3843 26.76 34.9923 26.76C32.6008 26.76 31.4878 29.0013 30.5947 30.8026C29.7363 32.5344 29.147 33.5873 28.2192 33.5873C27.5654 33.5873 27.0461 33.0845 26.3178 31.7266L27.4127 27.9434C28.3906 24.5658 31.5104 22.2084 35 22.2084C38.4896 22.2084 41.6094 24.5658 42.5873 27.9434ZM6.77419 35.8631C4.28349 35.8631 2.25806 33.8218 2.25806 31.3115C2.25806 28.8013 4.28349 26.76 6.77419 26.76C9.2649 26.76 11.2903 28.8013 11.2903 31.3115H13.5484C13.5484 27.974 11.158 25.1931 8.01293 24.6036C7.94733 24.1891 7.90323 23.7697 7.90323 23.3463C7.90323 18.9553 11.4496 15.381 15.8065 15.381C19.2261 15.381 22.2433 17.584 23.3111 20.861L23.6998 22.05L24.8376 21.5483C26.3178 20.8949 28.0191 20.9488 29.4612 21.6089C27.4727 22.9173 25.9385 24.9109 25.2461 27.305L22.7681 35.8631H6.77419ZM21.4516 42.6905C24.9412 42.6905 28.061 45.0479 29.039 48.4255L29.6922 50.6841C29.0649 51.6447 28.6156 51.7936 28.2225 51.7936C27.293 51.7936 26.7026 50.7407 25.8437 49.0089C24.9495 47.2076 23.8359 44.9663 21.4439 44.9663C19.0524 44.9663 17.9394 47.2076 17.0463 49.0089C16.1879 50.7407 15.5986 51.7936 14.6708 51.7936C14.2799 51.7936 13.8329 51.6431 13.2088 50.6907L13.8643 48.4255C14.8423 45.0479 17.962 42.6905 21.4516 42.6905ZM12.4657 53.2593C13.0484 53.7383 13.7617 54.0694 14.6708 54.0694C17.0606 54.0694 18.1742 51.8275 19.0673 50.0262C19.9251 48.2944 20.5155 47.2421 21.4439 47.2421C22.3728 47.2421 22.9632 48.2944 23.8227 50.0262C24.718 51.8275 25.8299 54.0694 28.2225 54.0694C29.147 54.0694 29.8675 53.7088 30.4343 53.2466L33.4046 63.5093L31.9404 67.7242H8.2792L12.4657 53.2593Z" fill="#0378A6"/>
</svg>
