<?xml version="1.0" encoding="UTF-8"?>
<!DOCTYPE svg PUBLIC "-//W3C//DTD SVG 1.1//EN" "http://www.w3.org/Graphics/SVG/1.1/DTD/svg11.dtd">
<!-- Creator: CorelDRAW X7 -->
<svg xmlns="http://www.w3.org/2000/svg" xml:space="preserve" width="52mm" height="52mm" version="1.1" style="shape-rendering:geometricPrecision; text-rendering:geometricPrecision; image-rendering:optimizeQuality; fill-rule:evenodd; clip-rule:evenodd"
viewBox="0 0 4293 4293"
 xmlns:xlink="http://www.w3.org/1999/xlink">
 <defs>
  <style type="text/css">
   <![CDATA[
    .fil0 {fill:white}
    .fil1 {fill:white;fill-rule:nonzero}
   ]]>
  </style>
 </defs>
 <g id="Camada_x0020_1">
  <metadata id="CorelCorpID_0Corel-Layer"/>
  <g id="_2890302792368">
   <path class="fil0" d="M1819 1530l0 348 -358 0 0 440 358 0 0 1108 445 0 0 -1108 343 0 54 -440 -397 0 0 -329c0,-153 95,-189 232,-189l203 0 0 -396c-39,0 -82,-10 -120,-10 -58,0 -116,-4 -173,-5l-46 0c-114,2 -226,21 -333,102 -83,63 -137,140 -171,240 -23,66 -37,152 -37,239z"/>
   <path class="fil1" d="M2146 0c593,0 1130,240 1518,629 388,388 629,925 629,1517 0,593 -241,1130 -629,1518 -388,388 -925,629 -1518,629 -592,0 -1129,-241 -1517,-629 -389,-388 -629,-925 -629,-1518 0,-592 240,-1129 629,-1517 388,-389 925,-629 1517,-629zm1401 745c-358,-358 -854,-580 -1401,-580 -547,0 -1042,222 -1401,580 -358,359 -580,854 -580,1401 0,547 222,1043 580,1401 359,359 854,580 1401,580 547,0 1043,-221 1401,-580 359,-358 580,-854 580,-1401 0,-547 -221,-1042 -580,-1401z"/>
  </g>
 </g>
</svg>
