<svg width="70" height="70" viewBox="0 0 70 70" fill="none" xmlns="http://www.w3.org/2000/svg">
<path d="M39.3752 69.9999H30.6252C28.5835 69.9999 26.2502 68.2499 26.2502 64.7499V58.6249C26.2502 55.7083 24.7918 53.0832 22.4585 51.0416C17.2085 46.9583 14.5835 41.1249 14.5835 34.7083C14.8752 23.6249 23.9168 14.8749 34.7085 14.5833C40.2502 14.5833 45.5002 16.6249 49.2918 20.4166C53.0835 24.2083 55.4168 29.4583 55.4168 34.9999C55.4168 41.1249 52.7918 46.9582 47.8335 50.7499C45.2085 52.7916 43.7502 55.9999 43.7502 58.9166V65.6249C43.7502 67.9582 41.7085 69.9999 39.3752 69.9999ZM35.0002 17.4999C25.6668 17.4999 17.7918 25.3749 17.5002 34.7083C17.5002 40.2499 19.8335 45.4999 24.2085 48.7083C27.4168 51.3333 29.1668 54.8333 29.1668 58.6249V64.7499C29.1668 65.3333 29.1668 67.0832 30.6252 67.0832H39.3752C40.2502 67.0832 40.8335 66.4999 40.8335 65.6249V58.9166C40.8335 55.1249 42.8752 51.0416 46.0835 48.4166C50.1668 45.2083 52.5002 40.2499 52.5002 34.9999C52.5002 30.3333 50.7502 25.9583 47.2502 22.4583C44.0418 19.2499 39.6668 17.4999 35.0002 17.4999Z" fill="#0378A6"/>
<path d="M42.2917 61.2499H27.7083C26.8333 61.2499 26.25 60.6666 26.25 59.7916C26.25 58.9166 26.8333 58.3333 27.7083 58.3333H42.2917C43.1667 58.3333 43.75 58.9166 43.75 59.7916C43.75 60.6666 43.1667 61.2499 42.2917 61.2499Z" fill="#0378A6"/>
<path d="M34.9998 8.75C34.1248 8.75 33.5415 8.16667 33.5415 7.29167V1.45833C33.5415 0.583333 34.1248 0 34.9998 0C35.8748 0 36.4582 0.583333 36.4582 1.45833V7.29167C36.4582 8.16667 35.8748 8.75 34.9998 8.75Z" fill="#0378A6"/>
<path d="M54.5417 16.9167C54.25 16.9167 53.6667 16.9167 53.375 16.625C52.7917 16.0417 52.7917 15.1667 53.375 14.5833L57.4583 10.5C58.0417 9.91667 58.9167 9.91667 59.5 10.5C60.0833 11.0833 60.0833 11.9583 59.5 12.5417L55.4167 16.625C55.4167 16.625 54.8333 16.9167 54.5417 16.9167Z" fill="#0378A6"/>
<path d="M68.5417 36.4582H62.7083C61.8333 36.4582 61.25 35.8749 61.25 34.9998C61.25 34.1248 61.8333 33.5415 62.7083 33.5415H68.5417C69.4167 33.5415 70 34.1248 70 34.9998C70 35.8749 69.4167 36.4582 68.5417 36.4582Z" fill="#0378A6"/>
<path d="M58.625 60.0834C58.3333 60.0834 57.75 60.0834 57.4583 59.7917L53.375 55.7084C52.7917 55.1251 52.7917 54.2501 53.375 53.6667C53.9583 53.0834 54.8333 53.0834 55.4167 53.6667L59.5 57.7501C60.0833 58.3334 60.0833 59.2084 59.5 59.7917C59.5 60.0834 59.2083 60.0834 58.625 60.0834Z" fill="#0378A6"/>
<path d="M11.3752 60.0834C11.0835 60.0834 10.5002 60.0834 10.2085 59.7917C9.62516 59.2084 9.62516 58.3334 10.2085 57.7501L14.2918 53.6667C14.8752 53.0834 15.7502 53.0834 16.3335 53.6667C16.9168 54.2501 16.9168 55.1251 16.3335 55.7084L12.2502 59.7917C11.9585 60.0834 11.6668 60.0834 11.3752 60.0834Z" fill="#0378A6"/>
<path d="M7.29167 36.4582H1.45833C0.583333 36.4582 0 35.8749 0 34.9998C0 34.1248 0.583333 33.5415 1.45833 33.5415H7.29167C8.16667 33.5415 8.75 34.1248 8.75 34.9998C8.75 35.8749 8.16667 36.4582 7.29167 36.4582Z" fill="#0378A6"/>
<path d="M15.4585 16.9166C15.1668 16.9166 14.5835 16.9166 14.2918 16.6249L10.2085 12.2499C9.62516 11.6666 9.62516 10.7916 10.2085 10.2083C10.7918 9.62492 11.6668 9.62492 12.2502 10.2083L16.3335 14.2916C16.9168 14.8749 16.9168 15.7499 16.3335 16.3333C16.0418 16.6249 15.7502 16.9166 15.4585 16.9166Z" fill="#0378A6"/>
<path d="M46.6665 36.4583C45.7915 36.4583 45.2082 35.875 45.2082 35C45.2082 29.4583 40.5415 24.7917 34.9998 24.7917C34.1248 24.7917 33.5415 24.2083 33.5415 23.3333C33.5415 22.4583 34.1248 21.875 34.9998 21.875C42.2915 21.875 48.1248 27.7083 48.1248 35C48.1248 35.875 47.5415 36.4583 46.6665 36.4583Z" fill="#0378A6"/>
</svg>
