<?xml version="1.0" encoding="UTF-8"?>
<!DOCTYPE svg PUBLIC "-//W3C//DTD SVG 1.1//EN" "http://www.w3.org/Graphics/SVG/1.1/DTD/svg11.dtd">
<!-- Creator: CorelDRAW X7 -->
<svg xmlns="http://www.w3.org/2000/svg" xml:space="preserve" width="52mm" height="52mm" version="1.1" style="shape-rendering:geometricPrecision; text-rendering:geometricPrecision; image-rendering:optimizeQuality; fill-rule:evenodd; clip-rule:evenodd"
viewBox="0 0 4293 4293"
 xmlns:xlink="http://www.w3.org/1999/xlink">
 <defs>
  <style type="text/css">
   <![CDATA[
    .fil1 {fill:white}
    .fil0 {fill:white;fill-rule:nonzero}
   ]]>
  </style>
 </defs>
 <g id="Camada_x0020_1">
  <metadata id="CorelCorpID_0Corel-Layer"/>
  <g id="_2890250937264">
   <path class="fil0" d="M2146 0c593,0 1130,240 1518,629 388,388 629,925 629,1517 0,593 -241,1130 -629,1518 -388,388 -925,629 -1518,629 -592,0 -1129,-241 -1517,-629 -389,-388 -629,-925 -629,-1518 0,-592 240,-1129 629,-1517 388,-389 925,-629 1517,-629zm1401 745c-358,-358 -854,-580 -1401,-580 -547,0 -1042,222 -1401,580 -358,359 -580,854 -580,1401 0,547 222,1043 580,1401 359,359 854,580 1401,580 547,0 1043,-221 1401,-580 359,-358 580,-854 580,-1401 0,-547 -221,-1042 -580,-1401z"/>
   <path class="fil1" d="M2513 1102c-13,0 -170,-33 -316,-33 -82,0 -153,7 -227,15 -166,18 -109,56 -183,6 -45,-30 -106,-65 -157,-85 -32,-13 -51,-22 -89,-31 -44,-11 -61,-11 -114,-11 -11,47 -43,96 -42,185 1,63 -9,68 9,154 14,70 22,30 -41,120 -18,26 -32,49 -48,78 -45,86 -45,175 -45,275 0,148 47,275 121,384 24,35 50,63 80,93 53,54 129,103 203,136 68,30 195,69 273,69 -11,18 -35,29 -66,77 -11,16 -17,27 -24,47 -8,23 -4,41 -21,53 -49,34 -168,37 -239,16 -132,-37 -158,-253 -337,-253 -68,0 -66,34 -37,56 106,80 109,78 174,216 48,105 145,178 267,178l167 -4c0,46 -1,131 4,168 27,200 -115,183 -115,240 0,36 156,40 238,-59 30,-37 22,-81 22,-141 0,-59 -4,-264 6,-314 5,-25 21,-58 40,-71l0 265c0,34 -4,56 -4,83 -2,62 0,114 -6,171 -10,95 -59,80 -59,131 0,10 7,16 20,19l26 0c33,-5 78,-25 117,-64 40,-40 48,-60 56,-131l8 -488 37 0c-12,26 -4,365 -4,427 -1,68 12,139 43,175 31,37 95,74 136,81l21 0c11,-3 18,-10 18,-24 0,-38 -47,-51 -71,-110 -20,-46 -17,-100 -17,-163 0,-123 0,-245 0,-367l18 9c38,35 39,136 44,170 10,68 9,286 32,330 5,9 18,28 25,35 29,31 81,51 127,54 35,3 93,12 93,-23 0,-28 -110,-58 -112,-143 -3,-149 17,-426 -32,-539 -35,-81 -75,-88 -89,-107 43,-1 103,-16 143,-24 196,-41 402,-169 468,-367 61,-180 67,-446 -31,-616 -22,-39 -48,-73 -77,-108 -22,-26 -13,-31 -8,-70 8,-56 7,-83 7,-138 0,-46 -22,-176 -56,-176 -87,0 -142,20 -217,57l-159 87z"/>
  </g>
 </g>
</svg>
