<?xml version="1.0" encoding="UTF-8"?>
<!DOCTYPE svg PUBLIC "-//W3C//DTD SVG 1.1//EN" "http://www.w3.org/Graphics/SVG/1.1/DTD/svg11.dtd">
<!-- Creator: CorelDRAW X7 -->
<svg xmlns="http://www.w3.org/2000/svg" xml:space="preserve" width="52mm" height="52mm" version="1.1" style="shape-rendering:geometricPrecision; text-rendering:geometricPrecision; image-rendering:optimizeQuality; fill-rule:evenodd; clip-rule:evenodd"
viewBox="0 0 4293 4293"
 xmlns:xlink="http://www.w3.org/1999/xlink">
 <defs>
  <style type="text/css">
   <![CDATA[
    .fil0 {fill:white}
    .fil1 {fill:white;fill-rule:nonzero}
   ]]>
  </style>
 </defs>
 <g id="Camada_x0020_1">
  <metadata id="CorelCorpID_0Corel-Layer"/>
  <g id="_2890302838832">
   <g>
    <path class="fil0" d="M1923 3174l456 0 0 -745c0,-7 0,-53 2,-59 1,-5 4,-11 4,-18 0,-6 -1,-13 1,-19 4,-11 2,-7 3,-19 0,-10 3,-3 4,-15 0,-5 -1,-6 1,-10 1,-4 2,0 3,-7l4 -17c0,-2 0,-2 0,-4l27 -59c0,-1 0,-1 0,-1l48 -58 24 -16c0,0 0,-1 0,-1 1,0 1,0 1,0l11 -6c0,0 1,-1 2,-1l21 -9c8,-3 15,-6 23,-7 10,-1 4,-1 8,-3 7,-3 11,0 19,-2 6,-2 2,-2 8,-3 12,-2 63,-2 72,-1 6,0 12,0 19,0l78 26 55 52c1,1 1,2 2,2 0,1 0,1 0,1 13,16 20,38 28,57 2,4 1,2 2,8l5 16c1,12 4,0 4,17 1,13 3,5 4,15 1,3 0,7 0,11 1,11 5,5 4,27 0,14 0,8 3,18 4,10 2,780 2,830l454 0 0 -930c-3,-2 -2,2 -3,-7 0,-11 2,-28 0,-39 -2,-10 -2,0 -4,-11 -1,-8 2,-20 0,-27 -2,-5 -3,2 -4,-10 0,-4 1,-9 0,-14 0,-13 -4,-4 -4,-21 0,-10 0,-8 -2,-12l-2 -13c0,-10 0,-4 -3,-10 -2,-5 0,-7 -1,-12 -1,-6 -3,-5 -4,-10 -4,-25 -6,-20 -9,-31 -1,-3 0,-3 0,-5l-6 -19c0,-1 -1,-2 -1,-3 -2,-4 -1,-1 -2,-6 0,0 0,-1 0,-1 0,-1 0,-1 0,-1l-6 -15c0,0 0,-1 0,-1l-15 -34c-2,-5 -1,-2 -2,-5l-12 -25c-1,0 -1,-1 -2,-3l-41 -60 -25 -29c-1,-1 -1,-1 -1,-1 -16,-17 -17,-15 -27,-23l-8 -8c0,0 -1,-1 -1,-1l-18 -13c-18,-13 -15,-9 -31,-19l-17 -9c-3,-2 -2,-1 -5,-3 0,0 -1,0 -1,0l-22 -10c-1,0 -1,0 -1,0l-8 -3c-3,-2 -2,-2 -5,-3 -3,-1 -3,0 -5,-1 -1,0 -1,0 -2,0l-35 -13c-9,-1 -4,-1 -10,-3l-15 -3c-5,-2 -13,-1 -18,-4l-12 -2c-16,0 -11,-4 -23,-4 -5,0 -10,0 -14,0 -13,-1 -3,-1 -10,-4 -10,-3 -28,1 -39,0 -10,-2 -1,-2 -11,-4 -11,-2 -42,0 -55,0 -16,0 -30,-2 -43,3 -4,1 -3,1 -7,1 -7,0 -21,-2 -27,0 -7,3 2,3 -10,4 -5,0 -9,-1 -14,0 -5,2 -2,3 -8,4 -7,1 -9,0 -16,3l-67 21c-1,0 -1,1 -1,1 -3,1 -3,0 -5,1l-42 19c0,0 -1,0 -1,1l-24 13c0,0 -1,1 -1,1l-26 16c-6,4 -9,9 -15,12l-22 18c0,0 -1,1 -1,1l-2 2c-13,10 -26,20 -35,34l-55 76c-4,-5 -2,-90 -2,-96 0,-24 3,-76 -1,-97l-434 0 -1 1447z"/>
    <path class="fil0" d="M1191 3174l458 0 0 -1447 -456 0c-4,13 -2,318 -2,359l0 1088z"/>
    <path class="fil0" d="M1160 1221l0 97c5,4 1,5 6,21 3,8 0,9 6,23l10 22c0,1 0,1 0,1l2 5c2,4 0,0 2,4l10 17c1,0 1,1 1,1 8,10 13,22 23,31 1,1 4,4 5,5l18 18c0,0 2,2 2,2 0,1 0,1 1,1l8 8c2,1 2,1 3,2l25 18c0,0 1,0 1,0l72 31c11,0 3,0 8,2 7,4 14,0 21,3 9,3 1,3 20,3 12,0 35,1 46,0 9,-1 2,-4 18,-4 10,0 10,-3 20,-4 9,-2 32,-11 41,-15 10,-6 21,-10 30,-17l18 -12c8,-5 13,-11 20,-18 0,0 1,0 1,0 0,-1 0,-1 1,-1l20 -20c7,-7 12,-15 18,-23 2,-4 2,-3 4,-7l16 -30c3,-5 6,-9 8,-14 2,-10 7,-18 9,-28 1,-2 0,-1 1,-4l3 -16c1,-12 4,-3 5,-18l0 -69c0,-15 -4,-9 -5,-18 -1,-17 -1,-9 -3,-20 -3,-12 -8,-17 -10,-26 -2,-9 1,-2 -3,-9l-24 -44c0,0 0,0 0,-1l-23 -28c-1,-1 -1,-1 -3,-3l-6 -6c-4,-3 -3,-2 -7,-5l-67 -46c0,-1 -1,-1 -1,-1l-16 -6c-11,-4 -7,-4 -22,-7 -6,-1 -4,-1 -5,-2 -6,-2 -16,0 -20,-5l-95 0c-5,4 -4,3 -11,3 -8,0 -4,0 -10,3 -1,0 -1,0 -1,0 -8,3 -3,-2 -16,4l-8 4c-7,3 -5,0 -12,3l-35 19c0,0 -1,1 -2,1l-6 4c-9,5 -5,5 -11,9 -23,14 -15,12 -30,26 -23,23 -12,15 -26,30 0,1 -3,4 -3,4l-7 12c-2,3 -1,2 -2,4 -2,4 -1,1 -3,4 -1,3 0,1 -2,4l-9 18c-1,0 -1,0 -1,1l-5 15c0,0 -1,0 -1,1l-6 22c-2,6 -3,0 -3,12 0,6 1,6 -3,9z"/>
   </g>
   <path class="fil1" d="M2146 0c593,0 1130,240 1518,629 388,388 629,925 629,1517 0,593 -241,1130 -629,1518 -388,388 -925,629 -1518,629 -592,0 -1129,-241 -1517,-629 -389,-388 -629,-925 -629,-1518 0,-592 240,-1129 629,-1517 388,-389 925,-629 1517,-629zm1401 745c-358,-358 -854,-580 -1401,-580 -547,0 -1042,222 -1401,580 -358,359 -580,854 -580,1401 0,547 222,1043 580,1401 359,359 854,580 1401,580 547,0 1043,-221 1401,-580 359,-358 580,-854 580,-1401 0,-547 -221,-1042 -580,-1401z"/>
  </g>
 </g>
</svg>
