<svg width="80" height="70" viewBox="0 0 80 70" fill="none" xmlns="http://www.w3.org/2000/svg">
<path d="M76.6406 59.6117H74.2933C74.5944 59.0114 74.7656 58.3322 74.7656 57.6124L74.7641 16.0609C74.7641 13.6376 72.8364 11.6659 70.4672 11.6659H64.1406V10.202C64.1406 9.0476 63.2225 8.10836 62.0938 8.10836H60.1542V2.09363C60.1542 1.41777 59.8328 0.780255 59.2947 0.388063C58.7564 -0.00396858 58.0623 -0.106252 57.4377 0.114775L53.7464 1.42032C53.1348 1.63672 52.8105 2.31913 53.0219 2.94482C53.2334 3.57034 53.9002 3.90292 54.5123 3.68589L57.8103 2.51939V31.3471L41.1719 37.2323V8.40466L49.787 5.35742C50.3988 5.14103 50.723 4.45861 50.5116 3.83292C50.3 3.2074 49.6334 2.87514 49.0211 3.09185L40 6.2826L22.5623 0.114775C21.9377 -0.106412 21.2436 -0.00396858 20.7053 0.388063C20.1672 0.780255 19.8458 1.41777 19.8458 2.09363V8.1082H17.9062C16.7775 8.1082 15.8594 9.04744 15.8594 10.2018V11.6673H9.53125C7.16188 11.6673 5.23438 13.639 5.23438 16.0623L5.23453 20.3248C5.23453 20.9869 5.75922 21.5234 6.40641 21.5234C7.05359 21.5234 7.57828 20.9868 7.57828 20.3248L7.57812 16.0625C7.57812 14.9608 8.45422 14.0647 9.53125 14.0647H15.8594V16.462H11.0938C10.783 16.462 10.4848 16.5883 10.2652 16.8131C10.0453 17.0378 9.92188 17.3428 9.92188 17.6606L9.92344 56.0158C9.92344 56.6779 10.4481 57.2145 11.0953 57.2145L68.9062 57.2129C69.217 57.2129 69.5152 57.0866 69.735 56.8617C69.9547 56.637 70.0781 56.3321 70.0781 56.0142L70.0766 17.659C70.0766 16.9969 69.5519 16.4604 68.9047 16.4604H64.1406V14.0632H70.4672C71.5442 14.0632 72.4203 14.9592 72.4203 16.0609L72.4219 57.6124C72.4219 58.714 71.5458 59.6101 70.4688 59.6101L9.53281 59.6117C8.45578 59.6117 7.57969 58.7156 7.57969 57.614L7.57859 25.454C7.57859 24.7918 7.05391 24.2553 6.40672 24.2553C5.75953 24.2553 5.23484 24.792 5.23484 25.454L5.23594 57.614C5.23594 58.3332 5.40672 59.0119 5.7075 59.6117H3.35938C1.50703 59.6117 0 61.1532 0 63.0478V66.5638C0 68.4586 1.50703 70 3.35938 70H49.9502C50.5975 70 51.122 69.4635 51.122 68.8014C51.122 68.1392 50.5975 67.6027 49.9502 67.6027H3.35938C2.79938 67.6027 2.34375 67.1367 2.34375 66.5639V63.0479C2.34375 62.4752 2.79938 62.0091 3.35938 62.0091H32.1094V62.8514C32.1094 64.502 33.4223 65.8449 35.0361 65.8449H44.9641C46.5778 65.8449 47.8906 64.5021 47.8906 62.8514V62.0091H76.6406C77.2006 62.0091 77.6562 62.4752 77.6562 63.0479V66.5639C77.6562 67.1367 77.2006 67.6027 76.6406 67.6027H55.0664C54.4191 67.6027 53.8945 68.1392 53.8945 68.8014C53.8945 69.4635 54.4191 70 55.0664 70H76.6406C78.493 70 80 68.4586 80 66.5639V63.0479C80 61.1532 78.493 59.6117 76.6406 59.6117ZM58.7764 33.5418C59.6005 33.2502 60.1542 32.4549 60.1542 31.5631V10.5056H61.7969V37.7164H46.9744L58.7764 33.5418ZM22.1895 2.51939L38.8281 8.40466V37.2323L22.1895 31.3471V2.51939ZM18.2031 10.5056H19.8458V31.5633C19.8458 32.4551 20.3995 33.2503 21.2239 33.5422L33.0256 37.7166H18.2031V10.5056ZM67.7328 18.8577L67.7344 54.8156L12.267 54.8172L12.2656 18.8593H15.8594V38.0201C15.8594 39.1744 16.7775 40.1137 17.9062 40.1137H62.0938C63.2225 40.1137 64.1406 39.1744 64.1406 38.0201V18.8577H67.7328ZM45.5469 62.8512C45.5469 63.18 45.2853 63.4475 44.9641 63.4475H35.0361C34.7147 63.4475 34.4531 63.18 34.4531 62.8512V62.009H45.5469V62.8512Z" fill="#0378A6"/>
<path d="M55.3923 43.5322H24.6074C23.9602 43.5322 23.4355 44.0687 23.4355 44.7309C23.4355 45.393 23.9602 45.9295 24.6074 45.9295H55.3923C56.0396 45.9295 56.5641 45.393 56.5641 44.7309C56.5641 44.0687 56.0395 43.5322 55.3923 43.5322Z" fill="#0378A6"/>
<path d="M44.5721 48.6167H24.6074C23.9602 48.6167 23.4355 49.1532 23.4355 49.8153C23.4355 50.4775 23.9602 51.014 24.6074 51.014H44.5721C45.2195 51.014 45.744 50.4775 45.744 49.8153C45.744 49.1532 45.2193 48.6167 44.5721 48.6167Z" fill="#0378A6"/>
</svg>
